<svg xmlns="http://www.w3.org/2000/svg" xmlns:svg="http://www.w3.org/2000/svg" id="svg1" width="120" height="120" version="1.1" viewBox="0 0 120 120"><g id="layer1"><rect style="fill:none;stroke:#000;stroke-opacity:1;stroke-width:3.00000043;stroke-dasharray:none;stroke-linejoin:bevel" id="rect1" width="85.568" height="64.593" x="20.898" y="38.191"/><path style="fill:none;stroke:#000;stroke-width:3;stroke-linejoin:bevel;stroke-dasharray:none;stroke-opacity:1" id="path1" d="M 20.31256,36.819086 C 65.88824,3.6355703 65.765474,3.50824 65.765474,3.50824 l 41.167756,33.922229 z"/><path style="fill:none;stroke:#000;stroke-width:3;stroke-linejoin:bevel;stroke-dasharray:none;stroke-opacity:1" id="path2" d="m 53.715568,70.95839 -0.02764,30.58483 17.133309,-0.13047 -0.254962,-30.328877 z"/><path style="fill:none;stroke:#000;stroke-width:3;stroke-linejoin:bevel;stroke-dasharray:none;stroke-opacity:1" id="path3" d="m 26.820281,65.327928 -0.166747,14.77124 12.355471,-0.18468 0.01548,-15.059863 z"/><path style="fill:none;stroke:#000;stroke-width:.815126;stroke-linejoin:bevel;stroke-dasharray:none;stroke-opacity:1" id="path4" d="m 57.70536,75.004049 0.269496,6.83446 8.353014,-0.558474 0.32061,-5.817443 z"/><ellipse style="fill:none;stroke:#000;stroke-width:1.2;stroke-linejoin:bevel;stroke-dasharray:none;stroke-opacity:1" id="path5" cx="67.536" cy="86.453" rx=".978" ry=".769"/><path style="fill:red;stroke:#000;stroke-width:.101867;stroke-linejoin:bevel;stroke-dasharray:none;stroke-opacity:1" id="path6" d="M 91.253071,35.731924 C 90.888206,35.711009 76.857494,35.615957 60.07371,35.520699 43.289926,35.425439 28.598127,35.305246 27.425267,35.253603 l -2.132472,-0.0939 8.987509,-6.552926 C 44.838209,20.908855 59.293244,10.322468 62.928032,7.6261368 64.335747,6.5818762 65.56302,5.6999127 65.655305,5.6662179 c 0.09229,-0.033695 7.470889,5.9583341 16.396899,13.3156211 8.92601,7.357285 17.175856,14.156367 18.332996,15.10907 l 2.10389,1.732187 -5.286317,-0.02657 c -2.90747,-0.01461 -5.584837,-0.04368 -5.949702,-0.0646 z"/><path style="fill:#deaa87;stroke:#000;stroke-width:.101867;stroke-linejoin:bevel;stroke-dasharray:none;stroke-opacity:1" id="path7" d="M 22.407862,70.540541 V 39.80344 H 63.685504 104.96314 V 70.540541 101.27764 H 88.673219 72.383292 l -0.01,-3.132677 C 72.367792,96.42199 72.312572,89.617546 72.25055,83.023975 L 72.137807,71.035666 71.37439,70.272133 70.610973,69.5086 62.112119,69.463906 53.613267,69.419214 52.9,70.121755 52.186732,70.824298 V 86.05097 101.27764 H 37.297297 22.407862 Z m 17.358723,10.19679 0.773956,-0.751829 v -7.60221 -7.602209 l -0.773956,-0.751533 -0.773956,-0.751533 -6.149227,0.240598 -6.149227,0.240599 -0.718675,0.707929 -0.718675,0.707931 -0.09685,7.470116 -0.09685,7.470117 0.773102,0.784921 0.773103,0.784919 6.191646,-0.09799 6.191646,-0.09799 z"/><path style="fill:#ff0;stroke:#000;stroke-width:.101867;stroke-linejoin:bevel;stroke-dasharray:none;stroke-opacity:1" id="path8" d="M 55.282555,86.237481 V 72.482964 l 6.809499,0.101186 c 3.745224,0.05565 6.822053,0.11615 6.837396,0.13444 0.01534,0.01829 0.07605,3.00387 0.13491,6.634626 l 0.107011,6.601372 -0.446581,-0.446581 c -0.381629,-0.381629 -0.557088,-0.446582 -1.206362,-0.446582 -0.643198,0 -0.825903,0.06612 -1.190702,0.430921 -0.698303,0.698303 -0.556454,1.702846 0.30323,2.147406 0.714821,0.369648 1.579927,0.289981 2.059572,-0.189664 l 0.412319,-0.412319 0.06948,6.34598 c 0.03822,3.49029 0.04736,6.37285 0.02032,6.40569 -0.02704,0.03284 -3.167871,0.09185 -6.979626,0.131133 l -6.930463,0.07143 z m 7.297298,-4.215337 c 2.49354,-0.158694 3.900792,-0.306659 4.027143,-0.423433 0.136783,-0.126415 0.242378,-1.059669 0.357066,-3.155766 0.149951,-2.740566 0.142912,-2.996205 -0.08888,-3.228034 -0.216054,-0.216083 -0.888692,-0.281921 -4.745919,-0.464528 -3.923691,-0.185754 -4.521302,-0.185647 -4.707789,8.39e-4 -0.183107,0.183108 -0.192056,0.70726 -0.06268,3.671583 0.08753,2.005604 0.217092,3.537711 0.308465,3.647809 0.202089,0.243502 0.347407,0.242068 4.912597,-0.04847 z"/><path style="fill:#c8beb7;stroke:#000;stroke-width:.101867;stroke-linejoin:bevel;stroke-dasharray:none;stroke-opacity:1" id="path9" d="m 28.30459,72.663091 7.8e-5,-5.838138 3.058968,-0.09718 c 1.682433,-0.05345 3.738944,-0.138657 4.570025,-0.189351 l 1.511056,-0.09217 v 5.986522 5.986522 l -4.570102,0.04097 -4.570103,0.04097 z"/><path style="fill:#c8beb7;stroke:#000;stroke-width:.101867;stroke-linejoin:bevel;stroke-dasharray:none;stroke-opacity:1" id="path10" d="m 58.316581,78.47016 c -0.05745,-1.580663 -0.08302,-2.895367 -0.05682,-2.921562 0.05343,-0.05343 7.817313,0.350762 7.859929,0.409191 0.05246,0.07193 -0.250119,4.755413 -0.311241,4.817528 -0.03398,0.03453 -1.338196,0.146596 -2.898258,0.249029 -1.560062,0.102433 -3.208328,0.216281 -3.662814,0.252995 l -0.826337,0.06675 z"/></g></svg>