<?xml version="1.0" encoding="UTF-8" standalone="no"?>
<!-- Created with Inkscape (http://www.inkscape.org/) -->

<svg
   width="128.0px"
   height="128.0px"
   viewBox="0 0 128.0 128.0"
   version="1.1"
   id="SVGRoot"
   sodipodi:docname=".3.svg"
   xml:space="preserve"
   inkscape:version="1.2.2 (732a01da63, 2022-12-09)"
   xmlns:inkscape="http://www.inkscape.org/namespaces/inkscape"
   xmlns:sodipodi="http://sodipodi.sourceforge.net/DTD/sodipodi-0.dtd"
   xmlns="http://www.w3.org/2000/svg"
   xmlns:svg="http://www.w3.org/2000/svg"><sodipodi:namedview
     id="namedview4260"
     pagecolor="#ffffff"
     bordercolor="#000000"
     borderopacity="0.25"
     inkscape:showpageshadow="2"
     inkscape:pageopacity="0.0"
     inkscape:pagecheckerboard="0"
     inkscape:deskcolor="#d1d1d1"
     inkscape:document-units="px"
     showgrid="true"
     inkscape:zoom="5.0255129"
     inkscape:cx="43.279164"
     inkscape:cy="57.705553"
     inkscape:window-width="1920"
     inkscape:window-height="1021"
     inkscape:window-x="-9"
     inkscape:window-y="-9"
     inkscape:window-maximized="1"
     inkscape:current-layer="layer1"><inkscape:grid
       type="xygrid"
       id="grid4746" /></sodipodi:namedview><defs
     id="defs4255"><inkscape:path-effect
       effect="powerstroke"
       id="path-effect8142"
       is_visible="true"
       lpeversion="1"
       offset_points="1.0575986,2.6178164"
       not_jump="true"
       sort_points="true"
       interpolator_type="CentripetalCatmullRom"
       interpolator_beta="0.75"
       start_linecap_type="square"
       linejoin_type="spiro"
       miter_limit="4"
       scale_width="1"
       end_linecap_type="square" /><inkscape:path-effect
       effect="simplify"
       id="path-effect8140"
       is_visible="true"
       lpeversion="1"
       steps="1"
       threshold="0.0047745358"
       smooth_angles="0"
       helper_size="0"
       simplify_individual_paths="false"
       simplify_just_coalesce="false"
       step="1" /></defs><g
     inkscape:label="Laag 1"
     inkscape:groupmode="layer"
     id="layer1"><path
       style="display:inline;opacity:0.984227;fill:#db3375;fill-opacity:0.76470602;stroke:#82b5ec;stroke-width:0.5;stroke-linejoin:bevel"
       id="path8209"
       d="m 79.784776,22.057031 c 1.162254,-0.791957 2.359402,-1.53371 3.562357,-2.262277 1.140408,-0.701274 2.321944,-1.331752 3.508437,-1.950613 0.54257,-0.279749 1.078696,-0.570285 1.643554,-0.802712 0.632412,-0.248509 1.283894,-0.44514 1.936649,-0.632281 0.661529,-0.169468 1.3373,-0.276827 2.008872,-0.39821 0.759248,-0.145741 1.526365,-0.227147 2.298883,-0.239763 1.248605,0.02773 2.496953,0.02958 3.745582,0.0061 0.790141,-0.06158 1.56425,0.06063 2.33766,0.202475 0.6578,0.08682 1.26537,0.335548 1.87608,0.580453 0.79196,0.324762 1.57495,0.670531 2.37262,0.981205 0.61999,0.236918 1.24742,0.453534 1.86416,0.698878 0.77018,0.300875 1.44794,0.775105 2.12338,1.242405 1.06875,0.767082 2.14502,1.525926 3.17096,2.350006 0.84292,0.699254 1.64975,1.440383 2.46536,2.17093 0.48006,0.427086 0.96611,0.85381 1.35209,1.370456 0.29025,0.395476 0.43126,0.861113 0.5647,1.326264 0.24579,0.950791 0.42834,1.916736 0.58403,2.885924 0.18305,1.143897 0.23215,2.300695 0.22469,3.457134 -0.0243,1.068191 -0.0823,2.135198 -0.1339,3.20231 -0.0524,1.032448 -0.10133,2.065297 -0.17619,3.096411 -0.062,0.783837 -0.13679,1.566432 -0.19011,2.350942 -0.0337,1.107999 -0.30387,2.183831 -0.56744,3.254464 -0.27723,1.112409 -0.59077,2.214611 -0.94923,3.303451 -0.29098,0.849737 -0.5411,1.712184 -0.79276,2.574068 -0.21106,0.711164 -0.44846,1.414107 -0.70129,2.111389 -0.25771,0.722816 -0.60534,1.406817 -0.95224,2.089512 -0.28693,0.548087 -0.56343,1.101313 -0.816,1.666091 -0.22869,0.52287 -0.3846,1.071914 -0.52424,1.623898 -0.0935,0.371884 -0.16273,0.749122 -0.24126,1.124302 -0.11467,0.396119 -0.15281,0.792452 -0.15084,1.203009 0.14367,1.02711 0.86747,1.623413 1.68761,2.149969 0.66313,0.376815 1.31653,0.763398 1.92398,1.225631 0.50025,0.399653 0.91236,0.889735 1.31681,1.382059 0.46746,0.570193 0.93514,1.139933 1.36497,1.739264 0.41012,0.573979 0.69041,1.223072 0.95874,1.87152 0.29875,0.712595 0.50621,1.456902 0.69437,2.20471 0.21764,0.933477 0.5013,1.848462 0.79926,2.758782 0.29077,0.833103 0.53349,1.680907 0.76882,2.530897 0.23602,0.854795 0.44744,1.715401 0.61479,2.586251 0.18383,0.911557 0.19981,1.843944 0.20317,2.770398 -0.009,0.860372 -0.10735,1.71786 -0.25117,2.56534 -0.0973,0.593919 -0.24355,1.177356 -0.42261,1.751435 -0.18457,0.531088 -0.37044,1.06181 -0.55885,1.591568 -0.22052,0.634248 -0.43123,1.271825 -0.64537,1.908241 -0.16066,0.451782 -0.30343,0.911216 -0.5023,1.348138 -0.38203,0.855904 -0.75431,1.715792 -1.15048,2.565333 -0.42357,0.897043 -0.84753,1.794042 -1.30983,2.671922 -0.25809,0.461156 -0.5249,0.917069 -0.7812,1.379285 -0.21909,0.41088 -0.44529,0.81734 -0.69104,1.21288 -0.32754,0.507103 -0.67191,1.002989 -1.00541,1.506135 -0.40385,0.63155 -0.83674,1.24316 -1.30386,1.8293 -0.59001,0.71419 -1.22862,1.38699 -1.89261,2.03239 -0.65162,0.59693 -1.31935,1.17566 -1.96429,1.77994 -0.52294,0.49221 -1.05364,0.97614 -1.58451,1.45977 -0.44643,0.4071 -0.91857,0.78429 -1.40245,1.14557 -0.28887,0.22688 -0.60431,0.39825 -0.96347,0.47501 -0.47975,0.0892 -0.96483,0.14605 -1.4472,0.21933 -0.48951,0.0751 -0.97111,0.18804 -1.44775,0.32096 -0.56887,0.18304 -1.1396,0.35811 -1.71591,0.51622 -0.637507,0.1707 -1.264578,0.378 -1.905983,0.53392 -0.667665,0.14345 -1.342353,0.24983 -2.017627,0.34989 -0.580022,0.082 -1.165545,0.11161 -1.750296,0.1355 -0.398619,0.0148 -0.79749,0.0202 -1.196354,0.0216 -0.335708,3.2e-4 -0.671416,-3.6e-4 -1.007124,-6.5e-4 -0.507762,0.002 -1.015376,-3e-5 -1.52303,-0.0106 -0.67716,-0.0185 -1.354145,-0.0248 -2.031267,-0.005 -0.700953,0.028 -1.402427,0.0389 -2.10385,0.0464 -0.666828,0.006 -1.333684,0.006 -2.000531,0.006 -0.517118,7.1e-4 -1.034205,-0.006 -1.551306,-0.009 -0.539543,-0.0103 -1.079241,-0.015 -1.618597,-0.033 -0.365151,-0.0118 -0.726363,-0.0609 -1.077063,-0.16324 -0.533332,-0.21729 -1.02349,-0.53597 -1.517247,-0.83025 -0.586778,-0.33772 -1.149893,-0.7117 -1.689508,-1.12008 -0.390072,-0.29866 -0.750687,-0.63326 -1.107957,-0.96977 -0.507934,-0.48217 -1.048231,-0.9281 -1.593387,-1.36708 -0.441633,-0.35689 -0.89712,-0.69597 -1.359798,-1.02495 -0.194152,-0.14161 -0.396274,-0.27284 -0.586737,-0.41957 -0.02083,-0.016 0.04294,0.0304 0.06442,0.0455 0.14419,0.22494 0.28838,0.44987 0.43257,0.67481 0.0088,0.0151 0.01291,0.0565 0.02638,0.0454 0.0081,-0.007 0.28841,-0.84856 0.304546,-0.89204 0.364404,-0.9501 0.681793,-1.91737 1.01808,-2.87763 0.347798,-0.99867 0.704893,-1.99407 1.051933,-2.993007 0.336072,-0.975592 0.684516,-1.946766 1.01247,-2.92514 0.26936,-0.804721 0.527069,-1.61331 0.799321,-2.417062 0.08714,-0.243757 0.179754,-0.485474 0.26032,-0.731536 -0.242512,0.565578 -0.238769,0.684041 -1.22886,0.994929 -0.261691,0.08217 -1.015581,-0.320416 -0.81132,-0.137354 0.120826,0.108286 0.255721,0.199769 0.384201,0.298852 0.517964,0.393646 1.055552,0.760614 1.601441,1.114196 0.600285,0.395627 1.205801,0.780472 1.833631,1.13106 0.779108,0.430683 1.613783,0.72736 2.471529,0.953557 0.855093,0.209707 1.723651,0.355733 2.588092,0.520028 0.84475,0.165313 1.683009,0.360703 2.528104,0.52441 0.806941,0.165149 1.623968,0.25967 2.445736,0.30355 1.160455,0.02484 2.287822,-0.239868 3.397189,-0.54852 0.964506,-0.291673 1.941406,-0.537996 2.918554,-0.782822 1.064875,-0.240777 2.097404,-0.572237 3.102562,-0.995806 1.148753,-0.515912 2.254753,-1.120542 3.339553,-1.758414 0.81588,-0.478066 1.58306,-1.030263 2.3213,-1.619483 0.81265,-0.66978 1.54095,-1.43201 2.23083,-2.225411 0.65261,-0.744837 1.07811,-1.636129 1.4595,-2.540136 0.30159,-0.734038 0.49551,-1.504281 0.65774,-2.279069 0.1377,-0.676389 0.23324,-1.359142 0.28644,-2.047074 0.035,-0.555585 0.0453,-1.112524 0.0299,-1.66892 -0.0197,-0.623012 -0.11305,-1.239123 -0.22194,-1.851686 -0.10468,-0.573434 -0.21814,-1.145315 -0.33912,-1.71553 -0.10613,-0.500467 -0.23496,-0.995441 -0.39353,-1.481782 -0.19617,-0.576739 -0.49143,-1.107854 -0.82378,-1.615468 -0.41233,-0.623317 -0.93532,-1.155641 -1.48369,-1.658342 -0.5026,-0.455421 -1.05218,-0.853292 -1.59761,-1.25478 -0.57404,-0.42271 -1.18242,-0.796799 -1.80518,-1.142776 -0.49518,-0.268525 -1.0056,-0.506788 -1.5151,-0.746425 -0.66594,-0.327784 -1.326239,-0.666881 -1.990547,-0.99796 -0.832868,-0.409526 -1.689293,-0.767436 -2.520354,-1.180591 -0.418454,-0.219074 -0.835602,-0.442853 -1.227055,-0.707924 -0.241111,-0.183036 -0.493479,-0.350134 -0.740658,-0.524624 0.759019,0.509967 0.41164,0.774884 0.505993,1.430881 0.0059,0.04119 0.06124,-0.05651 0.08921,-0.08732 0.538507,-0.593268 -0.175492,0.157481 0.491696,-0.534253 0.640033,-0.625747 1.336476,-1.189329 2.002335,-1.786856 0.68859,-0.585266 1.246967,-1.286498 1.763455,-2.022479 0.711805,-0.989272 1.406085,-1.99074 2.102505,-2.990853 0.71337,-0.991875 1.37501,-2.017879 1.99959,-3.06744 0.49844,-0.86002 0.98373,-1.727613 1.46514,-2.597255 0.40898,-0.804361 0.82313,-1.601214 1.29853,-2.368753 0.4906,-0.741499 1.00521,-1.466326 1.49066,-2.211343 0.42434,-0.610782 0.81391,-1.241308 1.17035,-1.893818 0.46266,-0.858508 0.83076,-1.763281 1.15731,-2.680861 0.30918,-0.907327 0.59977,-1.820545 0.80472,-2.757372 0.19935,-0.948748 0.22789,-1.91625 0.20888,-2.881715 -0.0352,-0.835024 -0.0938,-1.668747 -0.12651,-2.503905 -0.0198,-0.546007 -0.0252,-1.092369 -0.0273,-1.638683 0.0143,-0.536309 -0.0378,-1.069676 -0.10901,-1.600362 -0.10136,-0.703152 -0.29591,-1.387203 -0.51144,-2.062535 -0.21956,-0.69503 -0.52046,-1.356929 -0.85242,-2.004274 -0.49153,-0.949238 -1.20192,-1.732626 -1.98452,-2.44784 -0.72112,-0.630826 -1.50536,-1.181216 -2.30894,-1.700393 -0.86226,-0.55491 -1.79724,-0.980571 -2.73739,-1.383599 -0.71852,-0.291545 -1.44074,-0.574376 -2.17244,-0.831229 -0.804931,-0.290118 -1.651843,-0.404296 -2.497382,-0.500474 -0.93993,-0.0995 -1.8843,-0.130733 -2.828822,-0.13164 -1.018589,-0.0031 -2.02872,0.132705 -3.033763,0.283582 -1.413185,0.209033 -2.776402,0.625143 -4.120625,1.096194 -0.967725,0.35128 -1.920587,0.742301 -2.867169,1.146686 -0.70637,0.302948 -1.402028,0.629929 -2.085557,0.981232 -0.507021,0.27028 -0.990977,0.580513 -1.487907,0.868441 -0.321065,0.181019 -0.640327,0.365941 -0.972077,0.526965 -0.02567,0.01197 -0.05092,0.02489 -0.07701,0.0359 -0.09259,0.03906 0.129789,-0.07859 0.311635,-0.08185 0.425228,-0.0076 0.390401,0.03115 0.797434,0.205442 0.04134,0.02747 0.07678,0.09767 0.124016,0.08242 0.031,-0.01001 -0.08282,-0.28972 -0.136381,-0.466129 -0.136462,-0.449447 -0.23488,-0.908292 -0.334741,-1.366796 -0.161617,-0.85124 -0.335195,-1.699215 -0.552175,-2.538171 -0.168213,-0.617326 -0.346995,-1.231704 -0.519862,-1.847742 -0.125867,-0.447274 -0.274774,-0.887495 -0.423056,-1.327685 -0.10001,-0.285015 -0.197537,-0.570718 -0.287785,-0.858978 -0.0031,-0.0691 -0.01334,-0.136204 -0.02225,-0.205187 -0.279904,-2.103486 -3.254683,-1.707641 -2.974778,0.395845 v 0 c 0.03218,0.237488 0.06166,0.476819 0.133276,0.706523 0.09673,0.308565 0.200258,0.614769 0.307558,0.919813 0.131886,0.391517 0.265209,0.782786 0.377638,1.18047 0.167527,0.597003 0.340419,1.192497 0.504402,1.79048 0.208607,0.801365 0.367938,1.612969 0.52531,2.425742 0.209479,0.954559 0.417347,2.096029 0.954498,2.927214 0.118969,0.184093 0.281769,0.335828 0.422653,0.503742 0.22468,0.12982 0.431261,0.297849 0.674041,0.38946 0.503807,0.190108 1.055577,0.04704 1.515807,-0.175517 0.393577,-0.193888 0.776583,-0.407777 1.157214,-0.625832 0.453339,-0.263046 0.896354,-0.543632 1.355698,-0.796152 0.619701,-0.319356 1.251316,-0.614804 1.891833,-0.89013 0.88552,-0.378666 1.777009,-0.74463 2.681926,-1.074669 1.166225,-0.410369 2.347082,-0.778378 3.573986,-0.960289 0.856074,-0.129788 1.716276,-0.250849 2.584181,-0.250022 0.833377,3.03e-4 1.666577,0.02622 2.496051,0.112905 0.621763,0.06868 1.247024,0.138884 1.839873,0.350404 0.66832,0.233634 1.32693,0.493777 1.98372,0.757867 0.7857,0.33583 1.5701,0.685465 2.29191,1.146756 0.66777,0.429777 1.3201,0.884384 1.92217,1.403878 0.52225,0.465381 0.99953,0.972047 1.32964,1.596021 0.25832,0.499257 0.49297,1.009166 0.66271,1.546355 0.16364,0.508176 0.31479,1.022252 0.39567,1.551105 0.0554,0.400601 0.096,0.802833 0.0817,1.208016 0.002,0.581683 0.008,1.163413 0.0296,1.744761 0.0323,0.816852 0.0869,1.63244 0.12484,2.449005 0.0166,0.732268 0.005,1.466275 -0.14234,2.187064 -0.17095,0.81291 -0.43967,1.599724 -0.69994,2.387569 -0.27024,0.768792 -0.57917,1.52583 -0.96311,2.245609 -0.318,0.584565 -0.6704,1.145813 -1.05017,1.692529 -0.49823,0.76528 -1.0305,1.507122 -1.52918,2.272046 -0.49867,0.809104 -0.9446,1.643529 -1.37094,2.492502 -0.46642,0.842619 -0.93666,1.683207 -1.41899,2.516838 -0.58717,0.988271 -1.2111,1.953074 -1.882917,2.88636 -0.695246,0.998439 -1.388391,1.998196 -2.098988,2.985817 -0.383251,0.550321 -0.790387,1.077401 -1.309412,1.509655 -0.72401,0.650776 -1.485462,1.260477 -2.172144,1.951917 -0.975141,1.035956 -2.174916,2.435145 -0.64143,3.710885 0.266661,0.187899 0.537435,0.369793 0.799089,0.564805 0.501604,0.334187 1.027451,0.629128 1.564056,0.903405 0.830173,0.411387 1.682463,0.774046 2.515993,1.178423 0.684634,0.341112 1.364707,0.69137 2.05175,1.027599 0.450373,0.211825 0.902033,0.421401 1.340553,0.657254 0.51089,0.280449 1.00745,0.589158 1.47808,0.93324 0.4608,0.339121 0.92722,0.672492 1.35389,1.054846 0.36887,0.33432 0.72632,0.683663 1.00496,1.099433 0.19098,0.281798 0.35869,0.578385 0.47576,0.899247 0.12864,0.380412 0.22079,0.771736 0.30742,1.163573 0.11448,0.538039 0.22106,1.077824 0.32023,1.61889 0.0839,0.468309 0.16008,0.938759 0.17667,1.415229 0.0152,0.450634 0.002,0.901889 -0.0227,1.351995 -0.041,0.558975 -0.12212,1.112884 -0.23216,1.662573 -0.12082,0.586366 -0.26262,1.170475 -0.48624,1.727401 -0.2559,0.612048 -0.52108,1.228476 -0.95959,1.736014 -0.56922,0.657822 -1.16998,1.290244 -1.8387,1.848628 -0.62548,0.50171 -1.2768,0.970317 -1.96903,1.376733 -0.972465,0.573135 -1.96418,1.115989 -2.992425,1.583305 -0.857617,0.369824 -1.746282,0.636901 -2.656723,0.846104 -1.003052,0.251341 -2.005822,0.504449 -2.996043,0.803341 -0.796971,0.223332 -1.602795,0.434912 -2.436859,0.441936 -0.682206,-0.03296 -1.359545,-0.116455 -2.029225,-0.252854 -0.848456,-0.163875 -1.689512,-0.362342 -2.537948,-0.526298 -0.798586,-0.151655 -1.600881,-0.286525 -2.391778,-0.475865 -0.61429,-0.157238 -1.210931,-0.366542 -1.769325,-0.672123 -0.570908,-0.31589 -1.116421,-0.671233 -1.662314,-1.028167 -0.476979,-0.308058 -0.946195,-0.628629 -1.399186,-0.971189 -0.17386,-0.133965 -0.526573,-0.465554 -0.713954,-0.532152 -0.314115,-0.111642 -0.646195,-0.316697 -0.97074,-0.240522 -1.039998,0.244101 -1.068489,0.45843 -1.34482,1.063107 -0.07602,0.235505 -0.170125,0.4646 -0.249494,0.698953 -0.273108,0.806808 -0.532306,1.618235 -0.802355,2.426067 -0.324245,0.967999 -0.669648,1.928575 -1.001799,2.893867 -0.346169,0.996602 -0.702575,1.989597 -1.04947,2.985947 -0.330917,0.94508 -0.643071,1.89712 -1.001746,2.83216 -0.208146,0.56838 -0.662674,1.82298 -0.470922,2.4016 0.118475,0.3575 0.328314,0.67792 0.492472,1.01689 0.259001,0.22078 0.533769,0.41927 0.815072,0.61105 0.413922,0.29388 0.82119,0.59711 1.216109,0.91621 0.48494,0.39032 0.966613,0.78563 1.418288,1.21458 0.436787,0.41098 0.879643,0.81718 1.357627,1.1804 0.627766,0.4724 1.279637,0.90993 1.960724,1.30239 0.724073,0.43133 1.447261,0.89433 2.257793,1.14583 0.580431,0.15512 1.172199,0.25451 1.774253,0.269 0.565926,0.0183 1.132147,0.0246 1.698267,0.0345 0.52362,0.003 1.047226,0.0101 1.570864,0.009 0.677247,-1.9e-4 1.354505,-4.5e-4 2.031733,-0.006 0.7209,-0.008 1.441853,-0.019 2.162275,-0.0476 0.626182,-0.0193 1.252228,-0.0111 1.878461,0.005 0.527576,0.0109 1.055117,0.0132 1.582802,0.0113 0.340075,2.9e-4 0.68015,9.9e-4 1.020225,6.3e-4 0.436512,-0.002 0.873032,-0.008 1.309269,-0.0241 0.690747,-0.0286 1.382146,-0.0666 2.067036,-0.16542 0.768091,-0.11397 1.535574,-0.23582 2.293951,-0.40422 0.66691,-0.16537 1.322005,-0.37162 1.984265,-0.55429 0.58137,-0.15983 1.15859,-0.33249 1.73149,-0.52054 0.35831,-0.10126 0.72042,-0.1864 1.08866,-0.24361 0.58601,-0.0893 1.17689,-0.15216 1.75572,-0.28298 0.72616,-0.20244 1.40598,-0.50266 2.00096,-0.97495 0.56088,-0.42003 1.1086,-0.85786 1.62635,-1.33056 0.54138,-0.49334 1.08272,-0.98686 1.61605,-1.48893 0.65831,-0.61784 1.34386,-1.20529 2.00557,-1.81939 0.7541,-0.73593 1.48156,-1.50074 2.14934,-2.31659 0.51809,-0.65508 1.00571,-1.33284 1.4549,-2.03734 0.34993,-0.52845 0.71277,-1.04832 1.05426,-1.58236 0.27065,-0.43736 0.52372,-0.88457 0.76495,-1.338833 0.26697,-0.481489 0.54663,-0.95546 0.81263,-1.437466 0.4839,-0.920852 0.93076,-1.860135 1.37389,-2.801149 0.40323,-0.865461 0.78341,-1.740881 1.17213,-2.612863 0.23105,-0.525904 0.42087,-1.06749 0.60495,-1.611473 0.20868,-0.62026 0.4141,-1.241628 0.62864,-1.859899 0.2021,-0.568604 0.40289,-1.137781 0.59785,-1.708846 0.21663,-0.702983 0.3971,-1.416384 0.51566,-2.143033 0.1689,-1.016452 0.28739,-2.043718 0.29249,-3.075355 -0.006,-1.112781 -0.0359,-2.231226 -0.25755,-3.325668 -0.18384,-0.948574 -0.41098,-1.887092 -0.6692,-2.818239 -0.24774,-0.894619 -0.50391,-1.786795 -0.809,-2.66394 -0.27661,-0.844383 -0.54097,-1.692714 -0.74144,-2.559051 -0.22502,-0.889763 -0.47694,-1.774045 -0.83281,-2.621863 -0.35862,-0.860497 -0.74576,-1.714317 -1.29453,-2.473496 -0.46943,-0.650184 -0.97252,-1.273844 -1.48282,-1.892326 -0.55505,-0.67415 -1.13315,-1.333266 -1.8265,-1.870928 -0.6753,-0.50676 -1.38568,-0.956074 -2.12465,-1.364671 -0.51433,-0.319559 -0.35709,-0.340126 -0.29984,0.1969 -0.044,0.414246 0.0537,-0.38128 0.0931,-0.401136 0.0701,-0.335351 0.13187,-0.672516 0.21382,-1.005275 0.0965,-0.384683 0.19939,-0.768845 0.3549,-1.134757 0.23093,-0.51918 0.48837,-1.025574 0.75085,-1.529434 0.4024,-0.79211 0.79977,-1.588396 1.09841,-2.426948 0.2739,-0.757116 0.53196,-1.520049 0.76037,-2.29225 0.24217,-0.829571 0.48232,-1.659845 0.76283,-2.477576 0.3818,-1.162046 0.71753,-2.337847 1.01277,-3.524984 0.30384,-1.239018 0.60256,-2.486305 0.64721,-3.767251 0.0529,-0.780081 0.12849,-1.55815 0.18918,-2.33763 0.0761,-1.055 0.12738,-2.111639 0.18051,-3.168 0.0537,-1.109901 0.11411,-2.219712 0.13735,-3.330798 0.006,-1.321852 -0.0523,-2.644064 -0.26291,-3.951305 -0.17663,-1.091734 -0.38227,-2.180349 -0.6662,-3.249842 -0.24286,-0.820802 -0.53949,-1.625159 -1.06527,-2.312627 -0.51065,-0.655082 -1.09915,-1.237388 -1.72982,-1.777835 -0.85647,-0.767151 -1.70379,-1.545402 -2.59093,-2.277351 -1.08329,-0.866388 -2.21343,-1.671782 -3.34221,-2.477502 -0.86304,-0.595153 -1.73821,-1.181847 -2.72176,-1.562444 -0.62364,-0.247029 -1.25635,-0.469399 -1.88376,-0.706575 -0.78875,-0.306039 -1.56105,-0.651716 -2.34477,-0.970221 -0.7962,-0.318242 -1.59812,-0.623351 -2.45195,-0.746518 -0.96929,-0.176547 -1.944982,-0.314519 -2.933725,-0.250821 -1.250526,0.02368 -2.500606,0.01808 -3.751136,-0.006 -0.930426,0.02229 -1.855784,0.109131 -2.770469,0.286969 -0.770716,0.139303 -1.546136,0.263589 -2.303276,0.466896 -0.761753,0.218995 -1.52152,0.450487 -2.258131,0.744688 -0.644806,0.268968 -1.263724,0.589313 -1.882045,0.914119 -1.242973,0.648667 -2.480397,1.310056 -3.675342,2.044587 -1.363714,0.826499 -2.736989,1.652706 -4.018876,2.601938 -1.574737,1.422394 0.436832,3.649408 2.011568,2.227015 z" /><path
       style="opacity:0.984227;fill:#dd3677;fill-opacity:0.76470602;stroke:#82b5ec;stroke-width:0.5;stroke-linejoin:bevel"
       id="path8211"
       d="m 40.355669,24.295942 c -1.540536,0.107599 -2.966237,0.726055 -4.318137,1.430327 -1.26182,0.726117 -2.43754,1.618046 -3.200119,2.88229 -0.123714,0.2051 -0.220538,0.425262 -0.330808,0.637893 -0.521137,1.134298 -0.454533,2.341058 -0.371278,3.549668 0.05106,1.098159 0.243359,2.179921 0.457832,3.255742 0.248366,0.933724 0.484678,1.896776 0.955042,2.750069 0.104915,0.190328 0.22933,0.369238 0.343995,0.553856 0.887308,1.266334 2.260416,1.885211 3.679169,2.362115 1.181954,0.3637 2.411327,0.516035 3.634457,0.664985 1.129692,0.161046 2.257674,0.165508 3.380343,-0.03242 0.327151,-0.142782 0.664936,-0.263325 0.981452,-0.428346 0.887337,-0.462627 2.047493,-1.349053 2.744216,-2.072416 0.213207,-0.22136 0.401628,-0.465322 0.602442,-0.697983 0.721109,-0.973827 1.354433,-2.050116 1.619621,-3.245904 0.04703,-0.212081 0.06978,-0.428827 0.10467,-0.643241 0.104005,-0.962781 0.01206,-1.928168 -0.110016,-2.883991 -0.131326,-0.903642 -0.388584,-1.779981 -0.713909,-2.630941 -0.365018,-0.93486 -0.92669,-1.762066 -1.55725,-2.535072 -0.801441,-0.996913 -1.829485,-1.541862 -3.009237,-1.972967 -1.114499,-0.366563 -2.27712,-0.405822 -3.436258,-0.327987 -0.330239,0.02671 -0.657572,0.07673 -0.984143,0.130865 -2.092788,0.351055 -1.596321,3.310704 0.496467,2.959649 v 0 c 0.23173,-0.03953 0.464061,-0.07575 0.698357,-0.09692 0.745788,-0.05584 1.496669,-0.05651 2.220314,0.162013 0.655101,0.222202 1.25978,0.494395 1.698069,1.053262 0.434362,0.51981 0.821445,1.078183 1.075093,1.710623 0.245642,0.622838 0.430009,1.268689 0.53605,1.93057 0.08887,0.684167 0.164907,1.374315 0.117268,2.06514 -0.100169,0.889052 -0.528044,1.675235 -1.050201,2.39138 -0.117182,0.144804 -0.224503,0.298176 -0.351546,0.43441 -0.597429,0.640654 -1.345037,1.086405 -2.050686,1.589644 -0.06562,0.0468 -0.121805,0.105602 -0.182708,0.158402 -0.815738,0.169661 -1.644057,0.104186 -2.466052,0.0032 -1.027046,-0.12477 -2.060975,-0.243577 -3.056937,-0.535965 -0.758329,-0.243138 -1.563347,-0.504837 -2.092796,-1.131989 -0.465336,-0.680455 -0.676294,-1.481154 -0.882395,-2.27173 -0.190096,-0.9501 -0.364853,-1.904698 -0.406875,-2.875103 -0.04629,-0.666391 -0.151983,-1.356399 0.06345,-2.004206 0.472509,-1.033604 1.272532,-1.64353 2.245411,-2.204417 0.906675,-0.486674 1.846933,-0.895414 2.865052,-1.083953 2.121702,0.03718 2.174285,-2.963357 0.05258,-3.000539 z" /><path
       style="display:inline;opacity:0.984227;fill:#db266d;fill-opacity:0.76470602;stroke:#82b5ec;stroke-width:0.5;stroke-linejoin:bevel"
       id="path8213"
       d="m 42.518474,69.880108 c -1.346481,0.405339 -2.649797,0.947712 -3.930093,1.526225 -1.065091,0.517314 -2.100009,1.119154 -3.014531,1.876686 -0.63407,0.525222 -0.80375,0.733453 -1.372807,1.322716 -1.165227,1.26953 -1.939776,2.850305 -2.228297,4.551777 -0.0564,0.332576 -0.0744,0.670532 -0.111606,1.005798 -0.0873,1.685207 0.228945,3.199253 0.895083,4.735451 0.524283,1.131506 1.340165,2.046281 2.304518,2.817322 1.178807,0.833126 2.427821,1.141361 3.831234,1.343982 1.031121,0.102219 2.046837,0.3069 3.070308,0.460372 0.936705,0.14206 1.889858,0.04332 2.725937,-0.434653 0.239721,-0.137044 0.455035,-0.312944 0.682552,-0.469415 1.383194,-1.057897 2.248046,-2.551873 3.11001,-4.028872 0.749804,-1.206743 1.373961,-2.472249 1.866003,-3.803465 0.32779,-0.886811 0.592599,-1.793873 0.757707,-2.72476 0.159543,-1.006289 -0.01616,-1.979981 -0.360462,-2.924727 -0.530141,-1.169593 -1.38259,-2.013393 -2.401124,-2.76169 -0.906363,-0.597737 -1.921687,-1.004892 -2.928614,-1.399406 -0.870999,-0.318938 -1.772154,-0.547462 -2.680117,-0.73248 -0.10919,-0.01336 -0.218381,-0.02672 -0.327572,-0.04008 -2.111847,-0.207606 -2.405446,2.778998 -0.293598,2.986603 v 0 c 0.0081,-0.0018 0.01618,-0.0037 0.02427,-0.0055 0.739262,0.149303 1.47328,0.333105 2.184309,0.586434 0.769966,0.30027 1.547513,0.606488 2.257677,1.032489 0.537863,0.383942 1.030667,0.811321 1.358711,1.397582 0.179126,0.433711 0.270074,0.881913 0.208741,1.353286 -0.122057,0.752761 -0.361367,1.479021 -0.61637,2.196065 -0.427403,1.168339 -0.984166,2.270645 -1.642017,3.327957 -0.652682,1.120322 -1.267316,2.287031 -2.290973,3.119602 -0.415485,0.363105 -0.633895,0.452223 -1.193422,0.35669 -1.030836,-0.151915 -2.053097,-0.362197 -3.091519,-0.463451 -0.842591,-0.116103 -1.673915,-0.264003 -2.402336,-0.736044 -0.592434,-0.445349 -1.081994,-1.001269 -1.410628,-1.67071 -0.465931,-1.013487 -0.686984,-2.100139 -0.652276,-3.219219 0.125022,-1.492905 0.499504,-2.648639 1.520641,-3.780632 0.404435,-0.426273 0.582072,-0.637582 1.028682,-1.01493 0.733223,-0.619512 1.571182,-1.105409 2.429828,-1.527022 1.121983,-0.509294 2.264641,-0.98362 3.440576,-1.35382 2.054977,-0.529215 1.306555,-3.435392 -0.748423,-2.906177 z" /><path
       style="opacity:0.984227;fill:#fa9fc4;fill-opacity:1;stroke:#82b5ec;stroke-width:0.0994923;stroke-linejoin:bevel"
       d="m 81.251802,110.74904 c -1.165634,-0.28868 -2.89342,-1.45933 -5.862483,-3.97207 -0.697142,-0.59 -1.294784,-1.14186 -1.328093,-1.22636 -0.07377,-0.18713 3.126659,-9.370859 3.350018,-9.612984 0.08725,-0.09458 0.681191,0.149008 1.319868,0.541312 1.581143,0.971207 2.411482,1.238151 6.318777,2.031411 4.436673,0.900736 5.362719,0.888168 9.250362,-0.125532 4.010222,-1.045662 4.879791,-1.368847 7.281419,-2.706223 5.34902,-2.978665 7.47958,-5.896765 8.06253,-11.042791 0.21442,-1.892858 0.0343,-3.803791 -0.59207,-6.281293 -0.87534,-3.46224 -2.79512,-5.239792 -8.99573,-8.329254 l -3.515122,-1.751413 1.53615,-1.503437 c 1.760881,-1.723382 4.806842,-6.047289 6.787492,-9.635197 0.71137,-1.288637 2.07883,-3.567391 3.03881,-5.063897 1.77502,-2.767063 2.65634,-4.704352 3.36335,-7.393126 0.35554,-1.352121 0.381,-1.885306 0.26065,-5.457811 -0.0796,-2.363886 -0.24928,-4.408516 -0.421,-5.07411 -0.39532,-1.53227 -1.34564,-3.51352 -2.16479,-4.51318 -1.47085,-1.794988 -4.63886,-3.710345 -8.11412,-4.905748 -1.767348,-0.607922 -1.950458,-0.630566 -5.116196,-0.632674 -2.730025,-0.0018 -3.579059,0.07191 -5.03882,0.437565 -2.047795,0.51295 -5.854852,1.966459 -7.656922,2.923363 -0.798601,0.424059 -1.280518,0.583209 -1.319301,0.435691 -0.03361,-0.127827 -0.333138,-1.351702 -0.665625,-2.719722 -0.332487,-1.36802 -0.635149,-2.604543 -0.672583,-2.74783 -0.08298,-0.317615 3.495928,-2.611669 6.398941,-4.101678 3.428012,-1.759473 5.077071,-2.113263 9.949233,-2.134514 3.955033,-0.01725 4.132573,0.01721 7.946053,1.542196 3.51224,1.404527 6.66469,3.532746 9.98165,6.738609 1.11677,1.079368 1.36019,1.441498 1.63243,2.42851 0.69058,2.503801 0.7987,3.838441 0.66626,8.22394 -0.15727,5.207349 -0.38837,7.648943 -0.9217,9.737796 -0.79092,3.09772 -2.44619,8.090205 -3.13789,9.464224 -0.9595,1.905993 -1.54182,3.530482 -1.83518,5.119583 -0.34851,1.887881 -0.0177,2.47365 2.25419,3.990996 1.80802,1.207558 3.41315,2.926676 4.36055,4.670218 0.51239,0.942956 1.81362,5.078972 2.95763,9.400917 0.55811,2.108483 0.59827,2.478017 0.51098,4.702047 -0.0884,2.253265 -0.16297,2.617041 -1.12109,5.472078 -1.75552,5.231164 -5.45901,12.255251 -7.82023,14.831978 -1.28134,1.39828 -5.92896,5.63071 -6.51698,5.93479 -0.2842,0.14697 -1.09496,0.36977 -1.80168,0.49512 -0.70672,0.12535 -2.18038,0.49027 -3.27479,0.81092 -1.094418,0.32065 -2.482336,0.67519 -3.084264,0.78787 -1.326767,0.24836 -15.363245,0.4295 -16.250684,0.20971 z"
       id="path24098" /><path
       style="opacity:0.984227;fill:#fa9fc4;fill-opacity:1;stroke:#82b5ec;stroke-width:0.0994923;stroke-linejoin:bevel"
       d="m 40.592872,85.947136 c -0.930254,-0.142448 -2.028641,-0.358258 -2.440862,-0.479578 -2.388456,-0.702941 -3.597199,-3.980631 -2.524892,-6.846627 0.305494,-0.816507 0.725578,-1.385527 1.686477,-2.284401 1.470409,-1.375496 3.969616,-2.693277 5.070139,-2.673381 1.186171,0.02144 3.574281,1.068605 4.547442,1.994003 0.875405,0.832441 0.881357,0.847257 0.770774,1.918703 -0.140053,1.356983 -1.00701,3.435002 -2.42315,5.808079 -1.124282,1.883999 -2.070399,2.896751 -2.661603,2.849058 -0.183126,-0.01477 -1.094072,-0.143408 -2.024325,-0.285856 z"
       id="path24100" /><path
       style="opacity:0.984227;fill:#fa9fc4;fill-opacity:1;stroke:#82b5ec;stroke-width:0.0994923;stroke-linejoin:bevel"
       d="m 39.890375,38.810388 c -2.896445,-0.526273 -3.628646,-1.298527 -4.16898,-4.397029 -0.582216,-3.338673 -0.38207,-4.112253 1.389903,-5.372079 1.195723,-0.850128 2.146885,-1.170797 2.845441,-0.959293 0.295152,0.08936 1.342528,0.168947 2.327502,0.176852 2.592699,0.02081 3.590701,0.700109 4.484517,3.052443 0.612879,1.612966 0.711499,3.37777 0.247157,4.422865 -0.498285,1.12149 -1.267358,2.028734 -2.352869,2.775586 -0.740947,0.509784 -1.030992,0.588292 -2.11618,0.572795 -0.691651,-0.0099 -1.887072,-0.13234 -2.656491,-0.27214 z"
       id="path24102" /></g></svg>
