<?xml version="1.0" encoding="UTF-8" standalone="no"?>
<!-- Created with Inkscape (http://www.inkscape.org/) -->

<svg
   width="42.0px"
   height="42.0px"
   viewBox="0 0 42.0 42.0"
   version="1.1"
   id="SVGRoot"
   sodipodi:docname="search.svg"
   inkscape:version="1.1.2 (0a00cf5339, 2022-02-04)"
   xmlns:inkscape="http://www.inkscape.org/namespaces/inkscape"
   xmlns:sodipodi="http://sodipodi.sourceforge.net/DTD/sodipodi-0.dtd"
   xmlns="http://www.w3.org/2000/svg"
   xmlns:svg="http://www.w3.org/2000/svg">
  <sodipodi:namedview
     id="namedview1244"
     pagecolor="#ffffff"
     bordercolor="#666666"
     borderopacity="1.0"
     inkscape:pageshadow="2"
     inkscape:pageopacity="0.0"
     inkscape:pagecheckerboard="0"
     inkscape:document-units="px"
     showgrid="true"
     inkscape:zoom="7.2407734"
     inkscape:cx="0.48337378"
     inkscape:cy="1.7263349"
     inkscape:window-width="1920"
     inkscape:window-height="1016"
     inkscape:window-x="0"
     inkscape:window-y="0"
     inkscape:window-maximized="1"
     inkscape:current-layer="layer1">
    <inkscape:grid
       type="xygrid"
       id="grid1307" />
  </sodipodi:namedview>
  <defs
     id="defs1239" />
  <g
     inkscape:label="Laag 1"
     inkscape:groupmode="layer"
     id="layer1">
    <g
       id="g1435"
       transform="matrix(1.3144399,0,0,1.1406466,11.247819,-1.9815271)"
       style="display:inline">
      <path
         style="fill:#000000;stroke:#000000;stroke-width:0.195312;stroke-opacity:1"
         d="M 43.261719,89.526836 C 30.621221,88.072118 19.473106,80.340918 13.659549,68.99778 11.678491,65.132432 10.383447,61.095713 9.7687796,56.870045 9.3629481,54.080069 9.3660074,48.81525 9.7750608,46.060418 10.964371,38.050826 14.4522,30.849569 19.919085,25.116232 c 8.559017,-8.976176 20.641427,-13.222101 32.81529,-11.531746 2.119811,0.294338 6.297196,1.38099 8.203125,2.133858 13.598254,5.371489 22.748379,17.445256 24.309375,32.076693 0.84995,7.966692 -1.11782,16.497793 -5.465638,23.695827 -1.223328,2.025283 -6.305182,7.892861 -8.241022,9.515195 -7.671019,6.428721 -18.390621,9.658713 -28.278496,8.520777 z M 54.701074,86.158397 C 64.184227,84.136993 72.099551,78.721407 77.432953,70.605469 84.669176,59.593977 85.022323,44.779555 78.3201,33.389832 72.577631,23.63111 62.900121,17.30177 51.587977,15.906335 48.614789,15.539571 43.165399,15.770746 40.220801,16.388555 24.44761,19.697945 12.960563,32.797387 11.828282,48.766428 c -1.205283,16.998609 9.83176,32.502973 26.257656,36.885625 3.690968,0.984801 5.216857,1.149588 9.960937,1.075725 3.709813,-0.05776 4.618946,-0.135553 6.654199,-0.569381 z"
         id="path1219"
         transform="scale(0.26458333)" />
    </g>
    <path
       style="display:inline;fill:#000000;stroke:#000000;stroke-width:0.0762021;stroke-opacity:1"
       d="m 9.0629834,29.186746 c 4.7827516,-3.995171 8.7518026,-7.31456 8.8201176,-7.376427 0.116123,-0.105169 0.18039,-0.08612 0.990373,0.293625 0.476398,0.223352 1.018703,0.46515 1.205119,0.537324 0.186435,0.07219 0.328865,0.160921 0.316542,0.197181 C 20.364095,22.929799 2.8389187,37.573035 2.757698,37.57547 2.66686,37.57837 0.36605712,36.529994 0.36661148,36.486144 0.3670177,36.466604 4.2802201,33.181914 9.0629834,29.186742 Z"
       id="path1258" />
    <path
       style="display:inline;fill:#000000;stroke:#000000;stroke-width:0.446864;stroke-opacity:1"
       id="path1997"
       d="m 16.746337,20.371685 c 0.17662,0.206213 0.301634,0.441687 0.422027,0.6789 0.12628,0.234259 0.208684,0.478433 0.245871,0.73751 0.01579,0.224224 0.03405,0.44678 0.08761,0.666201 0.05778,0.180799 0.141871,0.353156 0.244647,0.515227 0.09248,0.163308 0.226054,0.292548 0.377722,0.407993 0.07514,0.05499 0.154403,0.10291 0.231686,0.147162 0.12271,0.05573 0.250427,0.100848 0.37908,0.142969 0.223216,0.07016 0.450727,0.128386 0.676388,0.191527 0.188607,0.04466 0.367314,0.117901 0.535228,0.208695 0.121707,0.06785 0.235411,0.146197 0.345477,0.229409 0.160869,0.113827 0.338416,0.195516 0.53216,0.246297 0.195466,0.04014 0.396651,0.03684 0.595633,0.03776 0.18826,1.49e-4 0.376533,-4.87e-4 0.5648,-9.04e-4 0.0929,0.01443 0.232694,-0.02163 0.320224,0.0034 0.116559,0.02163 0.234515,0.03392 0.352964,0.0417 0.09267,0.0043 0.189085,0.0069 0.277947,0.03504 0.126938,0.03909 0.258031,0.06026 0.39076,0.07165 0.139561,0.01496 0.278383,-0.002 0.416649,-0.01877 0.490224,-0.06016 0.399082,-0.70729 -0.09114,-0.647129 v 0 c -0.08871,0.01093 -0.176102,0.0266 -0.265806,0.01574 -0.09272,-0.0064 -0.182865,-0.02502 -0.27125,-0.05224 -0.134143,-0.03072 -0.270748,-0.0544 -0.409374,-0.05532 -0.106682,-0.0064 -0.2122,-0.02028 -0.317325,-0.03854 -0.135038,-0.01195 -0.270177,-0.0087 -0.405775,-0.0083 -0.186358,4.8e-4 -0.372716,0.0015 -0.559081,9.03e-4 -0.139561,-4.86e-4 -0.280049,0.002 -0.418639,-0.01574 -0.101011,-0.02201 -0.188285,-0.06941 -0.273654,-0.123701 -0.138919,-0.104303 -0.2827,-0.202521 -0.436276,-0.287407 -0.215076,-0.114586 -0.442561,-0.209424 -0.682891,-0.267953 -0.21581,-0.06031 -0.433442,-0.115842 -0.646952,-0.182617 -0.09111,-0.02936 -0.178316,-0.06759 -0.26858,-0.09816 -0.0052,-0.002 0.0089,0.0057 0.01348,0.0087 -0.04848,-0.02887 -0.0982,-0.05628 -0.143791,-0.09015 -0.0902,-0.06865 -0.171019,-0.138711 -0.221708,-0.24059 -0.06857,-0.100702 -0.114991,-0.212201 -0.161105,-0.323133 -0.05012,-0.200672 -0.05632,-0.405499 -0.07655,-0.610205 -0.05001,-0.324104 -0.148664,-0.633289 -0.306659,-0.92696 -0.142443,-0.279718 -0.293675,-0.555822 -0.501405,-0.799315 -0.303194,-0.364567 -0.855552,0.03567 -0.552351,0.400245 z" />
    <path
       style="display:inline;fill:#000000;stroke:#000000;stroke-width:0.446864;stroke-opacity:1"
       id="path1999"
       d="m 0.81378042,36.116458 c -0.0146169,-0.03509 -0.0323934,-0.07189 -0.0367565,-0.10993 -0.001736,-0.01497 0.0109945,0.02965 0.008448,0.04446 -0.004745,0.0281 -0.016677,0.05478 -0.024975,0.08219 -0.007755,0.01156 -0.0304029,0.02295 -0.0232737,0.03491 0.006366,0.0106 0.0203226,-0.01516 0.0309236,-0.02207 0.0312708,-0.02047 0.072483,-0.04424 0.10719103,-0.05401 0.0681314,-0.01877 0.13407215,-0.04297 0.20380655,-0.05632 0.073409,-0.0083 0.1456244,-0.02347 0.2188099,-0.0329 0.064752,-0.0072 0.1301198,-0.0069 0.1952122,-0.0076 0.061349,-0.003 0.1189158,0.01215 0.1657166,0.02746 0.067993,0.03339 0.1358568,0.06985 0.1982988,0.112997 0.118851,0.07545 0.2247771,0.168911 0.3314114,0.258977 0.1288827,0.09066 0.2293115,0.208787 0.3465898,0.311191 0.068733,0.06894 0.1511321,0.122961 0.2280707,0.182826 0.075098,0.04141 0.130503,0.08079 0.1949113,0.1287 0.069161,0.06499 0.1452588,0.123113 0.225666,0.175813 0.06334,0.04223 0.127723,0.08288 0.1890622,0.12774 -0.031271,-0.05426 0.027209,0.0281 0.020797,0.02075 -0.069914,-0.08036 -0.093326,-0.16205 -0.065597,-0.261494 0.055783,-0.09395 -0.1273099,0.117844 -0.1296604,0.120178 -0.1014508,0.09334 -0.011666,0.0191 -0.011226,0.01725 4.663e-4,-0.002 -0.00417,-4.33e-4 -0.00671,-9.03e-4 -0.072344,0.0053 -0.1449821,0.0053 -0.2174801,0.0053 -0.077564,9.04e-4 -0.096255,0.003 -0.1491867,-0.01537 -0.08711,-0.02525 -0.1711823,-0.0592 -0.2539054,-0.09496 -0.065458,-0.0205 -0.1230034,-0.05381 -0.1772401,-0.09388 C 2.2992037,36.947923 2.2063321,36.89043 2.1159395,36.829219 2.0395677,36.792325 1.9729954,36.747326 1.9049288,36.699021 1.811209,36.64246 1.7195005,36.583655 1.6285132,36.523627 1.5549651,36.46914 1.4569635,36.449191 1.3853162,36.392893 1.3006115,36.341433 1.2210184,36.283692 1.1368279,36.231598 1.0414648,36.165821 0.93084801,36.124571 0.82394401,36.078543 c -0.005323,0.0066 -0.0909075,-0.03937 -0.0868222,-0.03804 0.007292,0.003 0.0139689,0.0066 0.0207855,0.01005 -0.37635713,-0.299324 -0.82985892,0.197492 -0.45350179,0.496817 v 0 c 0.070747,0.05035 0.14157616,0.09794 0.22718084,0.124211 0.0793806,0.03401 0.16221813,0.06197 0.23204622,0.11213 0.0807115,0.03537 0.14065725,0.108244 0.22159553,0.144656 0.0772742,0.04855 0.15785389,0.09157 0.24149579,0.129634 0.084623,0.0548 0.1675488,0.111913 0.2559738,0.161487 0.074671,0.05262 0.1498303,0.10551 0.2328483,0.14502 0.083686,0.05362 0.1653278,0.109008 0.242196,0.171774 0.09512,0.06685 0.1960825,0.128478 0.308213,0.167702 0.1125841,0.04868 0.2279527,0.09319 0.346408,0.127739 0.1147366,0.03023 0.2304502,0.04965 0.3502259,0.04297 0.1171533,1.9e-5 0.2349511,0 0.3509735,-0.01725 0.158259,-0.03266 0.3035409,-0.09306 0.4026295,-0.218642 0.084843,-0.08865 0.1770561,-0.174201 0.2422608,-0.276585 0.013263,-0.03247 0.030982,-0.06365 0.039997,-0.09737 C 4.0474041,37.081236 3.9530824,36.914481 3.8003339,36.80455 3.7265083,36.751686 3.6502744,36.702081 3.5743669,36.651926 3.502671,36.615958 3.4546977,36.547657 3.389257,36.503665 3.3249215,36.458467 3.2649284,36.406641 3.1920137,36.373252 3.1282685,36.327964 3.0649804,36.280889 3.0083007,36.225447 2.8869811,36.124927 2.791023,35.998779 2.6573328,35.910532 2.528309,35.801706 2.3989784,35.691062 2.2553168,35.599264 2.1383209,35.52546 2.0186632,35.453445 1.88637,35.405561 1.7573461,35.364594 1.6227022,35.339651 1.4857669,35.34255 c -0.095941,9.04e-4 -0.1921476,0.002 -0.2873475,0.01424 -0.090387,0.0123 -0.1798962,0.02916 -0.2702367,0.04164 -0.1219781,0.0259 -0.24121798,0.06232 -0.35721043,0.105943 -0.14596587,0.06971 -0.2868951,0.145377 -0.39236865,0.26666 -0.0269192,0.0534 -0.062368,0.103707 -0.08071153,0.16018 -0.05153548,0.158644 0.02491714,0.330748 0.08882437,0.47448 0.21908076,0.413756 0.84594684,0.124575 0.6268765,-0.289185 z" />
    <path
       style="display:inline;fill:#000000;stroke:#000000;stroke-width:0.0558582;stroke-opacity:1"
       d="M 2.4099637,37.952057 C 2.2561164,37.895947 1.8398445,37.668183 1.4849129,37.4459 1.12998,37.223605 0.6834835,36.960692 0.49268997,36.861652 -0.04301051,36.583547 -0.25693078,36.092308 -0.00814971,35.711523 0.2107019,35.376547 1.0538851,35.099632 1.6544001,35.165513 c 0.2746831,0.03014 0.3075001,0.02167 0.3941706,-0.101822 0.052022,-0.07408 0.1316684,-0.134674 0.1770561,-0.134674 0.045367,0 0.1803731,-0.109281 0.2999891,-0.24285 0.119623,-0.133577 0.2496954,-0.242852 0.2890801,-0.242852 0.039349,0 0.1694641,-0.109281 0.2890813,-0.242851 0.1195975,-0.133576 0.248957,-0.242846 0.2874471,-0.242846 0.038469,0 0.1590668,-0.09714 0.2679278,-0.215869 0.1088807,-0.118738 0.2266971,-0.215874 0.2617998,-0.215874 0.035113,0 0.161717,-0.109282 0.2813214,-0.242853 0.1195999,-0.133569 0.2496954,-0.242846 0.2890802,-0.242846 0.039349,0 0.1694641,-0.109269 0.2890743,-0.242848 0.1196044,-0.133577 0.2444886,-0.242571 0.2775046,-0.242222 0.032983,3.21e-4 0.1640976,-0.09456 0.2912895,-0.210906 0.6471469,-0.591956 0.7830974,-0.70716 0.8344766,-0.70716 0.03075,0 0.1537825,-0.109282 0.2733869,-0.242852 0.1196275,-0.133575 0.2444931,-0.242564 0.2775046,-0.242219 0.032983,3.21e-4 0.1640918,-0.09456 0.2912894,-0.210907 0.6471458,-0.59195 0.7830974,-0.70716 0.8344824,-0.70716 0.03075,0 0.1537825,-0.109282 0.2733811,-0.242852 0.1196045,-0.133569 0.2497011,-0.242851 0.2890802,-0.242851 0.039349,0 0.1694698,-0.109282 0.2890801,-0.24285 0.1196218,-0.133571 0.2489651,-0.242853 0.2874541,-0.242853 0.038469,0 0.1590598,-0.09714 0.2679266,-0.215869 0.1088807,-0.118711 0.2266739,-0.215862 0.2618009,-0.215862 0.035113,0 0.1617112,-0.109282 0.2813154,-0.242852 0.1196289,-0.133576 0.2489697,-0.242851 0.2874547,-0.242851 0.03847,0 0.159066,-0.09714 0.267926,-0.215869 0.108881,-0.118714 0.226674,-0.215865 0.2618,-0.215865 0.03512,0 0.161717,-0.10928 0.281323,-0.242855 0.119622,-0.13357 0.249695,-0.242846 0.28908,-0.242846 0.03935,0 0.168439,-0.108118 0.286788,-0.240296 0.118344,-0.13215 0.234414,-0.229198 0.257919,-0.215639 0.02351,0.01367 0.145894,-0.08474 0.271962,-0.218426 0.126073,-0.133686 0.257169,-0.243074 0.291322,-0.243074 0.03417,0 0.159964,-0.109282 0.279586,-0.242851 0.119599,-0.133576 0.244487,-0.24257 0.277499,-0.242224 0.05714,4.84e-4 0.179325,-0.103058 0.789707,-0.669948 0.146919,-0.136472 0.295236,-0.248115 0.32956,-0.248115 0.03433,0 0.15925,-0.108131 0.277599,-0.240295 0.118345,-0.132156 0.234415,-0.229198 0.257925,-0.21564 0.02351,0.01367 0.145895,-0.08474 0.271963,-0.218425 0.126065,-0.133688 0.257168,-0.243074 0.291322,-0.243074 0.03417,0 0.15998,-0.109282 0.27958,-0.242858 0.119622,-0.13357 0.244487,-0.242564 0.277505,-0.242218 0.03298,3.31e-4 0.164091,-0.09456 0.291289,-0.210913 0.647146,-0.591945 0.783097,-0.707155 0.834483,-0.707155 0.03075,0 0.153775,-0.109294 0.273415,-0.242886 0.235175,-0.262611 0.254437,-0.403417 0.128536,-0.939615 -0.06082,-0.259001 -0.394171,-0.912848 -0.574543,-1.126889 -0.129207,-0.153321 -0.143203,-0.411574 -0.0324,-0.598152 0.06984,-0.117601 0.05101,-0.165675 -0.226904,-0.578852 -0.341437,-0.507636 -0.780181,-1.326701 -0.991857,-1.851638 -0.07785,-0.193056 -0.158496,-0.376296 -0.17923,-0.407205 -0.0208,-0.03091 -0.04194,-0.08048 -0.04707,-0.110171 -0.0053,-0.02965 -0.07899,-0.284669 -0.164025,-0.566648 -0.151679,-0.503015 -0.167319,-0.563292 -0.23118,-0.890453 -0.168256,-0.862158 -0.217532,-1.990636 -0.127215,-2.914209 0.06164,-0.630321 0.06874,-0.681198 0.112688,-0.809502 0.02032,-0.05936 0.05254,-0.205076 0.07157,-0.323803 0.01897,-0.118718 0.04047,-0.252722 0.04765,-0.297764 0.007,-0.04505 0.02898,-0.105944 0.04842,-0.135339 0.01943,-0.0294 0.05608,-0.15038 0.08138,-0.268887 0.05843,-0.273794 0.06267,-0.290808 0.08013,-0.323388 0.008,-0.01478 0.01991,-0.0452 0.02669,-0.06745 0.0066,-0.02227 0.03281,-0.08905 0.0579,-0.14841 0.02514,-0.05937 0.136935,-0.3264996 0.248423,-0.5936362 1.473976,-3.5313489 4.906815,-6.228815 9.176688,-7.2108826 0.528013,-0.1214451 0.505509,-0.1177758 1.475302,-0.2403288 0.954676,-0.1206432 2.953225,-0.1197976 3.582173,0.00145 0.08082,0.015601 0.251014,0.042427 0.378206,0.059622 0.351923,0.047578 0.394942,0.055487 0.528778,0.096874 0.06823,0.021092 0.198317,0.049235 0.289075,0.062524 0.338999,0.04962 1.454779,0.3626293 1.957302,0.5490809 3.31962,1.231679 5.942755,3.5522664 7.200724,6.37019 0.12946,0.2900035 0.264528,0.5879908 0.300137,0.6621967 0.03564,0.074205 0.06984,0.153128 0.07612,0.175395 0.0063,0.02225 0.01649,0.04655 0.02285,0.05397 0.0064,0.0074 0.02149,0.06272 0.03381,0.122903 0.01237,0.06019 0.08974,0.339458 0.172167,0.62062 0.08245,0.281163 0.161765,0.596199 0.176257,0.700084 0.01461,0.103885 0.04336,0.261742 0.06407,0.350787 0.06626,0.284786 0.157211,1.19791 0.158584,1.592023 0.0013,0.226454 -0.06195,0.952894 -0.114159,1.322187 -0.07472,0.528382 -0.122945,0.775912 -0.193044,0.99097 -0.03252,0.0998 -0.05595,0.196944 -0.05214,0.215864 0.0036,0.01896 -0.0075,0.07082 -0.0251,0.115346 -0.01762,0.04453 -0.13138,0.370686 -0.252663,0.724816 -0.351651,1.026765 -1.091776,2.36856 -1.682967,3.051139 -0.456583,0.527152 -1.644789,1.716238 -2.094773,2.096325 -1.39897,1.18165 -3.415721,2.133591 -5.580458,2.634078 -0.318917,0.07374 -0.670897,0.14487 -0.78219,0.158093 -0.111311,0.01326 -0.267404,0.03835 -0.346898,0.05581 -0.13581,0.02988 -0.275809,0.04724 -0.838329,0.104241 -0.340912,0.0345 -2.310802,0.03578 -2.529359,0.0015 -0.103394,-0.0161 -0.318068,-0.04034 -0.477059,-0.05371 -0.158995,-0.01347 -0.497215,-0.06349 -0.751605,-0.1114 -0.254395,-0.04792 -0.521109,-0.09369 -0.592704,-0.101759 -0.07159,-0.0083 -0.147473,-0.03082 -0.168622,-0.05055 -0.06866,-0.06409 -0.239656,-0.03815 -0.435039,0.06608 -0.2703,0.144147 -0.568411,0.180586 -0.893678,0.109247 -0.154248,-0.03383 -0.748743,-0.07949 -1.321113,-0.101507 -1.134849,-0.04365 -1.175106,-0.05325 -1.755028,-0.41766 -0.316907,-0.19913 -0.814482,-0.392164 -1.016173,-0.394219 -0.05954,-4.85e-4 -0.178382,0.100137 -0.821665,0.696401 -0.16355,0.151596 -0.32486,0.275632 -0.358472,0.275632 -0.03363,0 -0.158973,0.109281 -0.278582,0.242851 -0.119623,0.133575 -0.246992,0.242851 -0.283066,0.242851 -0.03611,0 -0.174866,0.103214 -0.308414,0.229361 -0.133542,0.126144 -0.374613,0.33864 -0.535701,0.47221 -0.161074,0.13357 -0.406604,0.346057 -0.545607,0.472206 -0.138992,0.126144 -0.276974,0.229361 -0.306605,0.229361 -0.02963,0 -0.156939,0.109282 -0.282889,0.242851 -0.125955,0.13357 -0.254248,0.242851 -0.285098,0.242851 -0.03087,0 -0.165352,0.103225 -0.298912,0.229356 -0.133548,0.126148 -0.374619,0.338644 -0.5357,0.472211 -0.161074,0.133575 -0.406611,0.346062 -0.545613,0.472215 -0.139015,0.126141 -0.276975,0.229356 -0.306606,0.229356 -0.02963,0 -0.156939,0.109281 -0.282883,0.242851 -0.125961,0.133571 -0.25175,0.242564 -0.279543,0.24222 -0.02775,-3.22e-4 -0.154578,0.09456 -0.281787,0.210911 -0.633622,0.579578 -0.782114,0.707131 -0.822902,0.706878 -0.04141,-3.21e-4 -0.166905,0.107334 -0.803055,0.688352 -0.138119,0.126147 -0.273564,0.229361 -0.301008,0.229361 -0.02745,0 -0.158449,0.103225 -0.291118,0.229365 -0.132677,0.126139 -0.3625553,0.32649 -0.5108592,0.445224 -0.1482989,0.118713 -0.3815406,0.319074 -0.5183058,0.445224 -0.1367755,0.12615 -0.2711127,0.229359 -0.2985574,0.229359 -0.027452,0 -0.1584476,0.103225 -0.2911181,0.22936 -0.1326764,0.126145 -0.3625549,0.326502 -0.5108656,0.445229 -0.1482921,0.118714 -0.3815338,0.319071 -0.5182978,0.445225 -0.1367757,0.126145 -0.2711139,0.229359 -0.2985586,0.229359 -0.027452,0 -0.1588607,0.103226 -0.2920139,0.229355 -0.133159,0.126134 -0.3611176,0.326487 -0.5065522,0.445215 -0.1454416,0.118718 -0.3782771,0.319079 -0.5174103,0.445223 -0.1391261,0.126145 -0.2773992,0.229361 -0.3072523,0.229361 -0.02987,0 -0.1433562,0.09714 -0.2522403,0.215869 -0.1088807,0.118713 -0.2259367,0.215864 -0.260168,0.215864 -0.034233,0 -0.1512907,0.09714 -0.2601691,0.215868 -0.1088807,0.118719 -0.225277,0.215869 -0.2586889,0.215869 -0.0334,0 -0.146372,0.09108 -0.2510331,0.202373 -0.1046681,0.11131 -0.2413998,0.226663 -0.3038476,0.256347 -0.2202068,0.10466 -0.2499592,0.224787 -0.094067,0.379687 0.2189234,0.217522 0.1976576,0.531191 -0.056315,0.830487 -0.1094014,0.128934 -0.3045256,0.279193 -0.433619,0.333927 -0.3030652,0.128497 -0.7898735,0.126314 -1.1504193,-0.0051 z M 29.294677,24.161113 c 0.533403,-0.0244 1.374978,-0.173672 2.128556,-0.377506 3.306373,-0.894361 6.050248,-2.934884 7.509156,-5.5843 0.350678,-0.636833 0.779216,-1.614584 0.814706,-1.85881 0.0089,-0.06104 0.03393,-0.150077 0.0558,-0.197868 0.02175,-0.04777 0.04636,-0.14595 0.0546,-0.218153 0.0083,-0.07219 0.03546,-0.162205 0.06052,-0.20002 0.02504,-0.03781 0.03088,-0.08249 0.01277,-0.09926 -0.01808,-0.01667 -0.0091,-0.07168 0.01991,-0.122014 0.02886,-0.05032 0.06795,-0.223211 0.08684,-0.384164 0.01897,-0.160955 0.05025,-0.426212 0.06964,-0.589456 0.0456,-0.383887 0.04577,-1.660871 3.89e-4,-2.077727 -0.05414,-0.495665 -0.132246,-0.924059 -0.241095,-1.322191 -0.02032,-0.0742 -0.05078,-0.207771 -0.06782,-0.296815 -0.01691,-0.08905 -0.05767,-0.192255 -0.09039,-0.229361 -0.0327,-0.03708 -0.044,-0.06746 -0.02514,-0.06746 0.04606,0 -0.262821,-0.8106624 -0.485477,-1.2740569 C 38.353144,7.5043694 36.774126,5.8255711 34.864203,4.6546803 33.67149,3.9234782 31.717262,3.1823809 30.501792,3.0003325 c -0.09687,-0.014531 -0.24117,-0.03883 -0.320664,-0.054066 -0.166383,-0.031881 -0.393164,-0.067865 -0.722701,-0.114685 -0.581671,-0.082648 -3.798703,-0.025126 -3.965152,0.070877 -0.02427,0.013998 -0.163702,0.038588 -0.30985,0.054631 -0.399385,0.043837 -1.613857,0.3661819 -2.231926,0.592383 -3.112304,1.1390484 -5.427267,3.1640301 -6.737014,5.89312 -0.139034,0.2897209 -0.26461,0.5874855 -0.279038,0.6616865 -0.01438,0.0742 -0.0314,0.140986 -0.03775,0.148413 -0.0064,0.0074 -0.01809,0.03781 -0.02599,0.06745 -0.008,0.02969 -0.02103,0.06611 -0.02892,0.08095 -0.008,0.01477 -0.01991,0.0452 -0.02669,0.06746 -0.0066,0.02227 -0.02917,0.07689 -0.0499,0.121424 -0.0208,0.04453 -0.04524,0.129524 -0.05449,0.188887 -0.0091,0.05936 -0.03817,0.139904 -0.06426,0.178978 -0.0261,0.03908 -0.0321,0.08542 -0.01326,0.102973 0.01873,0.01765 0.0103,0.05882 -0.01897,0.09169 -0.02923,0.03286 -0.07003,0.168671 -0.09068,0.301783 -0.02055,0.133118 -0.04802,0.30274 -0.06081,0.376942 -0.0888,0.515027 -0.106184,0.783811 -0.106474,1.645989 -3.01e-4,0.894928 0.02238,1.240946 0.109379,1.67297 0.01784,0.08905 0.03458,0.198329 0.03694,0.242851 0.0052,0.100115 0.15779,0.699092 0.206004,0.809506 0.01945,0.04451 0.04537,0.13653 0.05761,0.204457 0.03052,0.16899 0.31471,0.875275 0.53662,1.333597 1.185855,2.449153 3.592895,4.554576 6.415598,5.61169 0.593212,0.222158 1.516714,0.499787 1.824615,0.548527 0.06361,0.01005 0.336778,0.06671 0.607066,0.125882 0.270289,0.05917 0.751606,0.122262 1.069597,0.140186 0.317979,0.01798 0.591161,0.0455 0.607061,0.06119 0.02556,0.02527 1.071953,-0.003 2.466906,-0.06697 z m -7.785952,-0.446429 c 0,-0.02377 -0.123581,-0.09892 -0.274624,-0.167024 -0.151038,-0.06808 -0.430728,-0.211994 -0.621521,-0.319788 -0.399816,-0.225895 -0.462514,-0.242122 -0.551012,-0.142595 -0.05107,0.05741 -0.01213,0.09766 0.185382,0.19155 0.137499,0.06538 0.328836,0.174864 0.425178,0.243332 0.09635,0.06846 0.239439,0.148408 0.317991,0.17767 0.174536,0.06502 0.518612,0.07619 0.518612,0.01686 z M 18.61162,21.835986 c -0.227363,-0.218955 -0.282759,-0.227713 -0.282759,-0.04472 0,0.07831 0.02504,0.123666 0.05785,0.104758 0.03182,-0.01837 0.05785,-0.0063 0.05785,0.02697 0,0.0332 0.02604,0.04534 0.05784,0.02698 0.03182,-0.01836 0.05785,-0.0062 0.05785,0.02698 0,0.0332 0.02604,0.04534 0.05785,0.02698 0.03182,-0.01837 0.05785,-0.0063 0.05785,0.02698 0,0.0332 0.02828,0.04404 0.06283,0.0241 0.03929,-0.02265 -0.0083,-0.104803 -0.126962,-0.219052 z"
       id="path2079" />
    <path
       style="display:inline;fill:#000000;stroke:#000000;stroke-width:0.0558582;stroke-opacity:1"
       d="m 2.5451503,38.008638 c -0.2420952,-0.069 -0.5735958,-0.245755 -1.3408935,-0.715 C 0.80064946,37.046807 0.39250652,36.804353 0.29725905,36.754844 0.20201158,36.705353 0.07042656,36.566678 0.00485741,36.446686 -0.30956455,35.8714 0.02771449,35.412159 0.90394263,35.222477 c 0.20997957,-0.04543 0.52215757,-0.07735 0.69370597,-0.07088 0.2432387,0.0093 0.3405068,-0.01214 0.4418025,-0.09706 0.071441,-0.05986 0.7933304,-0.661468 1.6041965,-1.336901 0.8108662,-0.67544 1.5653638,-1.306503 1.6766633,-1.402369 0.1112996,-0.09586 0.4885385,-0.411468 0.8383282,-0.701348 0.3497839,-0.289882 0.7270311,-0.605947 0.8383236,-0.702368 0.1112996,-0.09642 2.1146188,-1.771687 4.4518173,-3.722813 2.337205,-1.951125 4.353532,-3.63746 4.480724,-3.747411 0.127192,-0.109943 0.475202,-0.404843 0.77336,-0.65531 l 0.542097,-0.455391 -0.03163,-0.352282 c -0.03824,-0.425619 -0.194663,-0.832829 -0.5036,-1.310964 -0.237537,-0.367635 -0.286807,-0.605175 -0.16368,-0.789201 0.05679,-0.0849 0.01301,-0.187886 -0.280561,-0.660364 -0.565939,-0.910777 -1.095423,-1.980669 -1.237907,-2.501353 -0.02862,-0.104566 -0.0798,-0.281202 -0.113742,-0.392507 -0.464052,-1.521823 -0.509239,-3.581933 -0.112769,-5.140346 0.111913,-0.439906 0.285028,-1.009826 0.352423,-1.160286 0.03988,-0.089047 0.0763,-0.1740493 0.08088,-0.1888854 0.0047,-0.014775 0.05231,-0.121013 0.106022,-0.2359499 0.05372,-0.1149296 0.09768,-0.2226103 0.09768,-0.2392853 0,-0.060079 0.638433,-1.1996178 0.873383,-1.5589129 1.366307,-2.0894148 3.666801,-3.8603963 6.295719,-4.8466046 0.797512,-0.2991779 2.086379,-0.6537202 2.659572,-0.731596 0.238498,-0.032414 0.498666,-0.068428 0.578162,-0.080063 0.916769,-0.1341343 3.045761,-0.136535 3.844752,-0.00438 0.09539,0.015795 0.264504,0.042282 0.375802,0.058903 0.23475,0.03504 0.646404,0.1202058 1.098497,0.2272605 0.174883,0.041406 0.357013,0.084334 0.404715,0.095381 0.04771,0.011028 0.158259,0.045926 0.245712,0.077516 0.08745,0.03159 0.158996,0.042913 0.158996,0.025174 0,-0.017739 0.03252,-0.00821 0.07227,0.021189 0.03976,0.029403 0.215357,0.097009 0.390259,0.1502743 0.174883,0.05326 0.591332,0.2104936 0.925422,0.3494054 2.983715,1.2405823 5.415135,3.4891697 6.593863,6.0980203 0.100583,0.2226144 0.229585,0.5018907 0.286684,0.620618 0.05708,0.1187191 0.146101,0.3521566 0.197798,0.5187326 0.08951,0.288378 0.116947,0.392036 0.183135,0.691744 0.01603,0.07212 0.03889,0.146138 0.05107,0.164499 0.01214,0.01836 0.06488,0.262898 0.117225,0.543448 0.270796,1.451894 0.219429,2.715 -0.177652,4.368721 -0.06407,0.266841 -0.507161,1.386867 -0.755831,1.91057 -0.557071,1.173199 -1.204759,2.01198 -2.619662,3.392549 -1.034555,1.009438 -1.96241,1.63434 -3.385543,2.280128 -1.049476,0.476226 -2.43061,0.931096 -3.287045,1.082576 -0.06825,0.01211 -0.189132,0.03495 -0.268628,0.05082 -0.714141,0.142634 -1.358165,0.190038 -2.543891,0.187297 -0.715473,-0.0015 -1.3659,-0.01211 -1.445395,-0.02314 -0.07949,-0.01093 -0.274625,-0.0346 -0.43362,-0.05238 -0.158996,-0.01778 -0.354127,-0.0452 -0.43362,-0.06092 -0.07949,-0.01574 -0.2288,-0.03976 -0.331788,-0.05334 -0.102979,-0.01367 -0.298116,-0.04984 -0.43362,-0.08061 -0.135492,-0.03072 -0.292685,-0.06609 -0.349294,-0.07858 -0.05661,-0.01254 -0.186707,0.02284 -0.28908,0.07851 -0.284916,0.154878 -0.545256,0.176533 -1.082293,0.08998 -0.270289,-0.04359 -0.800882,-0.08238 -1.179082,-0.08624 -0.854728,-0.0087 -1.174722,-0.07103 -1.526952,-0.297186 -0.32919,-0.211368 -0.655422,-0.368627 -0.947718,-0.456849 l -0.213708,-0.06451 -2.041104,1.707561 c -1.122614,0.939152 -2.14518,1.798574 -2.272372,1.909819 -0.304802,0.266581 -1.923913,1.619848 -4.9721538,4.15576 -1.3673432,1.137526 -2.6232639,2.185645 -2.7909376,2.32915 -0.1676599,0.143504 -0.9285969,0.776555 -1.6909598,1.406782 -1.3289706,1.098653 -1.3825117,1.150469 -1.2989452,1.25718 0.2552911,0.326015 0.2449064,0.592835 -0.035403,0.910291 -0.2545433,0.288242 -0.5539213,0.416258 -0.9603259,0.410627 -0.1841019,-0.003 -0.3997894,-0.02319 -0.4792846,-0.04583 z M 28.316834,24.188045 c 1.039614,-0.04651 1.687372,-0.113018 2.297878,-0.235993 1.204836,-0.242711 2.546814,-0.729104 3.675723,-1.332251 1.719154,-0.918498 3.259153,-2.306405 4.276147,-3.85384 0.444047,-0.675643 0.970387,-1.809418 1.202569,-2.590407 0.448476,-1.508519 0.476303,-3.484844 0.07134,-5.066575 C 39.57651,10.077899 38.970246,8.7416733 38.41748,7.9725934 37.379468,6.5283791 35.695029,5.0660086 34.202421,4.3132377 33.293562,3.8548774 31.64762,3.2358571 31.019425,3.1161617 30.021563,2.9260311 29.166027,2.8245264 28.359898,2.8006253 c -1.049458,-0.031104 -2.639097,0.048064 -3.035331,0.1511731 -0.04771,0.012392 -0.177786,0.035186 -0.289079,0.050616 -0.111299,0.015407 -0.566597,0.1243707 -1.011774,0.2421028 -3.289826,0.8700072 -6.001855,2.9151768 -7.486311,5.6455108 -0.427022,0.7854158 -0.618776,1.252757 -0.874663,2.131692 -0.09902,0.340176 -0.09601,0.327463 -0.135014,0.56665 -0.01943,0.118718 -0.04676,0.266154 -0.06093,0.327614 -0.0142,0.06145 -0.05272,0.443949 -0.08575,0.849979 -0.06082,0.747779 -0.007,1.896795 0.114563,2.452378 0.03081,0.140604 0.0668,0.316354 0.08002,0.390559 0.04618,0.259118 0.332924,1.213736 0.421196,1.402104 0.04896,0.10445 0.110641,0.238492 0.137117,0.297851 0.585283,1.313 1.276622,2.288628 2.366441,3.339562 1.476658,1.423957 3.095808,2.360734 5.230092,3.025924 0.693877,0.216257 2.242223,0.482276 3.270745,0.561935 0.04771,0.0034 0.639724,-0.01797 1.31561,-0.0482 z m -6.865926,-0.471127 c 0,-0.04805 -1.168903,-0.660596 -1.260615,-0.660596 -0.03428,0 -0.07677,0.02181 -0.09443,0.04851 -0.0324,0.04897 0.762216,0.542232 0.978216,0.607215 0.166936,0.05021 0.376834,0.05292 0.376834,0.0049 z M 18.67646,21.924256 c -0.05507,-0.09609 -0.230621,-0.217103 -0.314893,-0.217103 -0.01809,0 -0.03269,0.03202 -0.03269,0.07115 0,0.05407 0.265317,0.222615 0.392291,0.249194 0.0091,0.002 -0.01099,-0.04457 -0.04471,-0.103246 z"
       id="path2118" />
    <path
       style="display:inline;fill:#000000;stroke:#000000;stroke-width:0.0558582;stroke-opacity:1"
       d="M 2.4006102,37.966475 C 2.2734184,37.918603 1.8571453,37.692833 1.4755582,37.464795 1.0939769,37.236752 0.63357174,36.962618 0.45243258,36.855596 0.27130499,36.74857 0.07943978,36.598811 0.02607572,36.522798 -0.1180639,36.317447 -0.14567988,35.951599 -0.03248469,35.747244 0.16152041,35.39707 0.8214546,35.146672 1.5599709,35.143031 l 0.378107,-0.002 1.0985019,-0.92363 C 3.9423694,33.456046 16.249297,23.154212 17.021862,22.510898 l 0.233873,-0.194747 -0.06548,-0.425873 c -0.05243,-0.340755 -0.131605,-0.546781 -0.396257,-1.030803 -0.311959,-0.570528 -0.328565,-0.62044 -0.292025,-0.87754 0.03388,-0.238035 0.01832,-0.305049 -0.122327,-0.528333 -0.0886,-0.140643 -0.206459,-0.328595 -0.261939,-0.417663 -0.322991,-0.518542 -0.832856,-1.574558 -1.027849,-2.128849 -0.310423,-0.882404 -0.450262,-1.555355 -0.530422,-2.552509 -0.158679,-1.973995 0.218143,-3.779555 1.165926,-5.5864074 0.833011,-1.588064 1.901484,-2.8093816 3.501768,-4.0027059 1.796987,-1.3400021 4.136849,-2.2858728 6.504208,-2.6292665 0.939371,-0.1362631 3.252725,-0.1348974 4.073947,0.00243 0.760012,0.1270682 2.215362,0.4739026 2.688432,0.6406957 3.363959,1.1860782 6.108995,3.5295122 7.430961,6.3437817 0.799833,1.7027394 1.158523,3.5288614 1.011251,5.1483534 -0.09681,1.064677 -0.360571,2.213619 -0.672505,2.929587 -0.05172,0.118718 -0.113476,0.264439 -0.137212,0.323804 -0.04789,0.119855 -0.09269,0.217116 -0.335235,0.728553 -0.178976,0.377403 -0.730895,1.240805 -1.017653,1.592024 -0.662752,0.811702 -2.163477,2.257205 -2.839563,2.735077 -1.449925,1.024825 -3.523774,1.885554 -5.434688,2.255601 -0.942723,0.182558 -1.468456,0.22358 -2.852517,0.222574 -1.223073,-9.03e-4 -1.459926,-0.01628 -2.235272,-0.144714 -1.26283,-0.209294 -1.212577,-0.205654 -1.385004,-0.100209 -0.188467,0.115273 -0.624413,0.125444 -1.468544,0.03427 -0.329308,-0.03557 -0.812992,-0.06465 -1.074864,-0.06465 -0.587904,0 -0.900393,-0.08476 -1.401414,-0.380121 -0.505205,-0.297822 -0.939008,-0.444592 -1.057121,-0.357653 -0.04724,0.03475 -1.361265,1.132517 -2.920108,2.439472 -3.716622,3.116077 -11.8962865,9.937736 -12.1078216,10.097663 -0.012603,0.0096 0.036699,0.122509 0.1096677,0.250957 0.1035571,0.182194 0.1237881,0.278023 0.092053,0.435927 -0.048422,0.241088 -0.3874779,0.612824 -0.6538027,0.716894 -0.2504071,0.09785 -0.8590581,0.08724 -1.1437196,-0.01997 z M 29.902544,24.059453 c 3.449239,-0.504979 6.619188,-2.38979 8.473927,-5.038506 0.388198,-0.554378 0.985009,-1.71372 1.216706,-2.363549 0.640784,-1.797123 0.696375,-3.963699 0.15006,-5.848044 C 39.188894,8.8973323 38.002118,7.1483519 36.29831,5.732491 34.705931,4.4092168 32.544075,3.4073108 30.472316,3.0324346 29.493141,2.8552606 29.34072,2.8456184 27.579382,2.8494676 c -1.62605,0.0034 -1.740607,0.010596 -2.457168,0.1507553 -3.342205,0.6537882 -6.114945,2.3480656 -7.916673,4.8374533 -0.687232,0.9495304 -1.386123,2.4688248 -1.615402,3.5116668 -0.213613,0.971632 -0.278669,2.472358 -0.149616,3.451471 0.226214,1.716219 1.039066,3.522898 2.220068,4.934442 2.032679,2.429465 4.932582,3.948761 8.392248,4.396798 0.581004,0.07526 3.173853,0.02634 3.849694,-0.07259 z M 21.39309,23.716918 c 0,-0.07991 -1.22193,-0.6749 -1.278193,-0.622383 -0.06292,0.05871 0.819525,0.583752 1.048244,0.623666 0.07877,0.01382 0.162748,0.02829 0.186594,0.03237 0.02385,0.0039 0.04337,-0.01116 0.04337,-0.03364 z m -2.846986,-1.885477 c -0.08576,-0.08006 -0.176238,-0.126523 -0.201043,-0.103288 -0.04943,0.04631 0.188626,0.248834 0.29242,0.248834 0.03553,0 -0.0059,-0.06548 -0.0914,-0.145549 z"
       id="path2157" />
    <path
       style="display:inline;fill:#000000;stroke:#000000;stroke-width:0.0558582;stroke-opacity:1"
       d="M 2.4226769,37.984589 C 2.1986301,37.90985 0.40940108,36.872718 0.18366458,36.686723 c -0.2037833,-0.167907 -0.29804126,-0.375041 -0.29804126,-0.655041 0,-0.219365 0.02815761,-0.278159 0.21805653,-0.455426 0.27699192,-0.258553 0.84004219,-0.431358 1.40549735,-0.431358 h 0.3972445 l 5.8263121,-4.875531 c 3.2044742,-2.681539 6.6328432,-5.550048 7.6186052,-6.374462 0.98576,-0.824412 1.814727,-1.542434 1.842149,-1.595603 0.09379,-0.181858 -0.116287,-0.907559 -0.426032,-1.4717 -0.261371,-0.476033 -0.290106,-0.562758 -0.278366,-0.840231 0.0119,-0.279854 -0.01213,-0.350381 -0.251432,-0.738425 -1.297238,-2.103926 -1.796545,-3.895553 -1.706288,-6.122522 0.01873,-0.460066 0.07355,-1.05505 0.122002,-1.322185 0.661956,-3.6494568 3.213493,-6.7395328 6.999887,-8.4773017 2.783996,-1.2777172 5.96889,-1.6473205 8.961448,-1.0399593 2.179469,0.4423374 4.131274,1.3107162 5.839389,2.5980172 1.282588,0.9665984 2.487511,2.3679427 3.242381,3.7709148 1.421619,2.642175 1.658284,5.510356 0.680482,8.24693 -0.463657,1.297633 -1.141771,2.47804 -1.909205,3.323387 -1.675568,1.845679 -2.784356,2.69946 -4.55265,3.505582 -1.052413,0.479773 -1.762094,0.72794 -2.773841,0.969986 -1.2719,0.30428 -1.910464,0.372879 -3.475164,0.373321 -1.279406,3.36e-4 -1.459697,-0.01171 -2.312634,-0.155654 -1.06747,-0.180075 -1.125618,-0.182311 -1.4743,-0.05685 -0.232189,0.08355 -0.331681,0.08699 -0.925052,0.03198 -0.365682,-0.03391 -1.022007,-0.08282 -1.458489,-0.108735 -0.742934,-0.04408 -0.814919,-0.0583 -1.127409,-0.222823 -0.689907,-0.363212 -1.074228,-0.535282 -1.193544,-0.534384 -0.08022,4.87e-4 -1.191364,0.896241 -3.187362,2.569115 -1.685329,1.412503 -5.061045,4.232794 -7.5015971,6.267316 -2.4474376,2.04026 -4.4364374,3.737848 -4.4353125,3.785474 0.00127,0.04748 0.039234,0.147073 0.084669,0.221273 0.1063346,0.173651 0.1082557,0.398739 0.00521,0.582824 -0.1116466,0.198904 -0.4327012,0.477663 -0.6302153,0.547166 -0.2211662,0.07782 -0.8311135,0.06817 -1.087129,-0.01725 z M 29.561426,24.077909 c 1.457977,-0.125216 3.40282,-0.752274 4.90205,-1.580544 1.16902,-0.645837 2.673822,-1.906905 3.474267,-2.911529 0.673043,-0.844732 1.320024,-2.013516 1.673537,-3.023304 0.670066,-1.91398 0.655817,-4.246791 -0.03805,-6.228956 C 38.624334,7.6228766 36.413297,5.3329991 33.465168,4.0077226 31.217089,2.9971369 29.185399,2.6746264 26.306527,2.8713567 23.115082,3.0894465 19.672553,4.8185501 17.732428,7.1779392 16.549723,8.6162286 15.738704,10.347548 15.48488,11.975881 c -0.0982,0.629979 -0.09736,2.567074 0.0013,3.093351 0.554272,2.955282 2.360514,5.489488 5.126344,7.192402 1.601774,0.986209 3.835568,1.721439 5.694855,1.874401 0.589111,0.04846 2.386704,0.01627 3.253991,-0.05811 z m -8.226148,-0.3964 c 0,-0.03145 -1.045521,-0.571219 -1.106437,-0.571219 -0.09197,0 -0.05107,0.08125 0.08022,0.159402 0.515667,0.306964 0.77732,0.43423 0.892741,0.43423 0.0734,0 0.133485,-0.01005 0.133485,-0.0224 z M 18.54498,21.831792 c -0.05379,-0.05018 -0.117113,-0.07315 -0.1408,-0.05103 -0.02368,0.02211 -0.0047,0.06278 0.04201,0.09041 0.140752,0.08309 0.203311,0.05817 0.09882,-0.03937 z"
       id="path2196" />
    <path
       style="display:inline;fill:#000000;stroke:#000000;stroke-width:0.0558582;stroke-opacity:1"
       d="M 2.3360769,37.955857 C 2.0448592,37.832422 0.37134144,36.847732 0.18366458,36.689396 -0.0195308,36.517963 -0.11437668,36.311298 -0.11437668,36.039909 c 0,-0.505513 0.5590691,-0.83706 1.48931628,-0.883212 l 0.5353579,-0.02654 5.4196657,-4.533895 c 8.7340618,-7.306617 9.7821688,-8.190111 9.8439798,-8.297923 0.09839,-0.171604 -0.08711,-0.833039 -0.405426,-1.445643 -0.24863,-0.47848 -0.289765,-0.603322 -0.289765,-0.879475 0,-0.282832 -0.0314,-0.372591 -0.258836,-0.740707 -0.933952,-1.511409 -1.485458,-3.01241 -1.645809,-4.479305 -0.311618,-2.850739 0.483933,-5.5143556 2.337082,-7.8248737 2.145722,-2.6753047 5.703638,-4.5090865 9.449333,-4.8702821 0.850763,-0.082035 2.855102,-0.033971 3.552172,0.085204 2.967026,0.5072077 5.358173,1.6177478 7.313949,3.3968844 1.07772,0.9803713 1.842746,1.9427805 2.463295,3.0988436 1.68596,3.1408628 1.716332,6.4924878 0.08749,9.6567608 -0.562703,1.09316 -0.98466,1.643053 -2.220883,2.894254 -1.166087,1.180218 -2.200345,1.897194 -3.73307,2.587866 -1.906395,0.859046 -3.543785,1.241723 -5.608132,1.310682 -1.14911,0.03839 -2.137981,-0.02902 -3.237682,-0.220583 l -0.722698,-0.125917 -0.28908,0.107208 c -0.242639,0.08999 -0.363386,0.101309 -0.751607,0.07039 -0.254384,-0.02028 -0.917824,-0.06834 -1.4743,-0.106832 l -1.011774,-0.07002 -0.760484,-0.368106 C 19.362676,24.081824 19.183634,24.017022 19.091739,24.057632 18.973944,24.109684 5.1571774,35.62981 4.4286037,36.283443 l -0.4002617,0.359085 0.09674,0.190266 c 0.118233,0.232583 0.122963,0.429392 0.014848,0.621866 -0.093859,0.167209 -0.4081314,0.455162 -0.5937424,0.544002 -0.2059799,0.0986 -0.9376981,0.07271 -1.2102019,-0.04277 z M 30.094369,24.008913 c 5.161576,-0.87026 9.218629,-4.570872 9.887548,-9.018868 0.103707,-0.689606 0.117225,-2.18272 0.02539,-2.808039 -0.3864,-2.6315417 -1.735734,-4.8712834 -4.0034,-6.6451518 C 34.274076,4.1837011 32.142379,3.2918193 29.810234,2.9454758 28.997665,2.8247985 26.458204,2.8243174 25.633022,2.9445077 24.350264,3.1316152 23.30063,3.4429333 22.029088,4.0134175 c -2.537906,1.1386548 -4.434682,2.8868238 -5.583739,5.146269 -0.6319,1.2425245 -0.911532,2.2236205 -1.01753,3.5699855 -0.266447,3.384496 1.172443,6.472054 4.073877,8.741686 1.754232,1.372238 3.92142,2.258381 6.429914,2.62913 0.393847,0.05822 3.706321,-0.01478 4.162733,-0.09175 z m -8.843186,-0.354984 c -0.04818,-0.07283 -1.01773,-0.558524 -1.051655,-0.526857 -0.0334,0.0312 0.368046,0.295611 0.701277,0.461883 0.240233,0.119876 0.407235,0.150839 0.350378,0.06498 z m -2.69106,-1.779103 c 0,-0.02654 -0.0427,-0.06348 -0.09491,-0.08217 -0.07936,-0.02843 -0.08293,-0.02051 -0.02175,0.04815 0.08327,0.09365 0.116719,0.103392 0.116719,0.03401 z"
       id="path2235" />
    <path
       style="display:inline;fill:#000000;stroke:#000000;stroke-width:0.00527081;stroke-opacity:1"
       d=""
       id="path2274" />
    <path
       style="display:inline;fill:#000000;stroke:#000000;stroke-width:0.0558582;stroke-opacity:1"
       d="M 2.2849812,37.932064 C 1.8555204,37.744898 0.28721583,36.796568 0.09167497,36.605811 -0.04708659,36.47044 -0.08254921,36.382667 -0.10251299,36.124915 c -0.0226256,-0.291213 -0.010763,-0.329853 0.1548842,-0.505925 0.27129095,-0.288418 0.68741593,-0.434932 1.31459799,-0.462866 l 0.5273816,-0.02346 6.9070909,-5.781809 c 9.3275063,-7.807888 8.3693613,-6.978839 8.3703173,-7.242608 0.0013,-0.297365 -0.135818,-0.706461 -0.439258,-1.312884 -0.198823,-0.397334 -0.253743,-0.568545 -0.253743,-0.791107 0,-0.235122 -0.04524,-0.361545 -0.262966,-0.734161 -0.87593,-1.499373 -1.330603,-2.649744 -1.59635,-4.038926 -0.104495,-0.546237 -0.104992,-2.795714 -5.89e-4,-3.345941 0.470625,-2.4838959 1.705222,-4.648538 3.629252,-6.363227 1.962805,-1.7492431 4.39525,-2.8831205 7.221154,-3.3661161 0.608297,-0.1039687 0.893277,-0.1185387 2.312634,-0.118213 1.800067,4.277e-4 2.155725,0.042475 3.700206,0.4378319 3.509025,0.8982141 6.474808,3.0879087 8.139844,6.009817 0.545854,0.9579029 0.989394,2.1992292 1.2341,3.4538762 0.139473,0.715039 0.140641,2.461831 0.0023,3.211025 -0.288497,1.560742 -0.951142,3.165304 -1.805251,4.371312 -0.655435,0.92548 -2.343332,2.572396 -3.284381,3.204645 -1.1368,0.763755 -2.678966,1.459732 -4.141904,1.869235 -1.91863,0.537057 -4.295609,0.656234 -6.404496,0.321111 -0.929617,-0.147733 -0.944919,-0.148393 -1.275542,-0.05494 -0.316826,0.08954 -0.40528,0.08984 -1.660812,0.0057 -0.729403,-0.04883 -1.430031,-0.114743 -1.556958,-0.146483 -0.126944,-0.03174 -0.427623,-0.163644 -0.668194,-0.29318 -0.240575,-0.129517 -0.546785,-0.271516 -0.680456,-0.315541 -0.241603,-0.07957 -0.244358,-0.07903 -0.459216,0.09215 -1.354549,1.078858 -14.8726394,12.382224 -14.8726394,12.435844 0,0.01176 0.041942,0.09689 0.093164,0.189382 0.1520684,0.274489 0.080515,0.602545 -0.1878539,0.861297 C 3.6326904,38.000458 3.4797748,38.05919 2.996266,38.058588 2.6760238,38.058263 2.5045043,38.027683 2.2851528,37.93206 Z M 29.602933,24.057066 c 0.503777,-0.05106 0.729743,-0.09286 1.474305,-0.272604 2.328546,-0.562168 4.25402,-1.619542 5.955024,-3.270186 0.658962,-0.639457 0.924168,-0.952927 1.387824,-1.640381 0.686167,-1.017365 1.18793,-2.177228 1.457782,-3.36978 0.140682,-0.62165 0.153648,-0.78491 0.156782,-1.972937 0.0029,-1.148656 -0.01166,-1.365429 -0.130785,-1.915827 C 39.116584,7.9743718 36.402016,5.0525561 32.481593,3.626436 30.772353,3.0046647 29.661921,2.8463573 27.300057,2.8877251 c -1.430903,0.025077 -1.67132,0.042573 -2.278692,0.1657966 -2.874889,0.5833533 -5.573743,2.1100696 -7.222579,4.0857373 -1.261633,1.511724 -2.090213,3.317594 -2.303744,5.020984 -0.107677,0.85896 -0.04566,2.672413 0.115049,3.366243 0.53963,2.329125 1.900793,4.390314 3.955975,5.990459 1.308889,1.019091 3.238227,1.908843 5.028825,2.319138 1.169655,0.268018 1.498686,0.295962 3.186849,0.27071 0.858555,-0.01287 1.678094,-0.03522 1.821192,-0.04972 z m -8.383288,-0.396713 c 0,-0.02396 -0.208131,-0.147086 -0.462526,-0.273609 -0.25439,-0.126528 -0.462526,-0.209896 -0.462526,-0.185271 0,0.05219 0.141118,0.138902 0.569578,0.350013 0.339845,0.16744 0.355474,0.172236 0.355474,0.108871 z"
       id="path2313" />
    <path
       style="display:inline;fill:#000000;stroke:#000000;stroke-width:0.0139646;stroke-opacity:1"
       d="m 20.908887,23.533986 c -0.246285,-0.122641 -0.421339,-0.217044 -0.414436,-0.223485 0.01213,-0.01139 0.573432,0.26876 0.573432,0.28628 0,0.01347 -0.02822,0.0024 -0.158996,-0.06281 z"
       id="path2352" />
    <path
       style="display:inline;fill:#000000;stroke:#000000;stroke-width:0.00131769;stroke-opacity:1"
       d=""
       id="path2391" />
    <path
       style="display:inline;fill:#000000;stroke:#000000;stroke-width:0.00131769;stroke-opacity:1"
       d=""
       id="path2430" />
    <path
       style="display:inline;fill:#000000;stroke:#000000;stroke-width:0.446864;stroke-opacity:1"
       id="path2646"
       d="m 19.752243,23.347636 c 0.08393,0.05312 0.161121,0.114684 0.239304,0.174774 0.06817,0.05084 0.134966,0.10377 0.20962,0.14636 0.05278,0.03014 0.06601,0.03436 0.120699,0.05859 0.110617,0.04617 0.231222,0.05725 0.349779,0.07221 0.05573,0.0091 0.10675,0.03465 0.158813,0.0544 0.03275,0.0117 0.06594,0.0224 0.09852,0.03446 0.0036,0.0015 0.02556,0.01037 0.01214,0.0057 0.04682,0.02319 0.09813,0.03655 0.14864,0.05071 0.473847,0.131831 0.673577,-0.493683 0.199718,-0.625508 v 0 c -0.01533,-0.0043 -0.07762,-0.02624 -0.0215,-0.0024 0.0018,9.04e-4 -0.0036,-0.0015 -0.0053,-0.0024 -0.05507,-0.02558 -0.112005,-0.04714 -0.170223,-0.06572 -0.106427,-0.03962 -0.211811,-0.08433 -0.327228,-0.09599 -0.05031,-0.0064 -0.100871,-0.0123 -0.151126,-0.01836 -0.06787,-0.02565 -0.120518,-0.07423 -0.177681,-0.115667 -0.0915,-0.07034 -0.18234,-0.14174 -0.28045,-0.204093 -0.403878,-0.266242 -0.807261,0.266904 -0.403377,0.53315 z" />
    <path
       style="display:inline;fill:#000000;stroke:#000000;stroke-width:0.446864;stroke-opacity:1"
       id="path2648"
       d="m 16.67887,20.17188 c -0.0013,-0.108257 -0.03052,-0.213027 -0.05966,-0.316972 -0.02404,-0.07291 -0.03381,-0.148622 -0.04889,-0.223338 -0.01302,-0.06648 -0.02681,-0.13276 -0.04077,-0.199024 -0.0075,-0.04908 -0.01991,-0.09726 -0.03304,-0.14525 -0.0094,-0.02537 -0.0162,-0.05045 -0.01809,-0.07712 -0.0018,-0.02867 -0.0023,-0.05738 -0.0023,-0.08607 0.0023,-0.05719 -0.01213,-0.112654 -0.02492,-0.168022 -0.01579,-0.06274 -0.04059,-0.124426 -0.08219,-0.176555 -0.01397,-0.01744 -0.02427,-0.0565 -0.04618,-0.04905 -0.20502,0.06947 -0.393181,0.176362 -0.589765,0.26453 0.0077,0.07188 0.0334,0.139812 0.05302,0.209135 0.01302,0.0493 0.0244,0.0989 0.03517,0.148654 0.0185,0.07379 0.04453,0.145707 0.06681,0.218567 0.0215,0.07368 0.04553,0.146479 0.07326,0.218297 0.03864,0.08762 0.08224,0.173291 0.123899,0.259716 0.0449,0.08982 0.08328,0.182239 0.128129,0.27208 0.03658,0.07971 0.08362,0.154133 0.131675,0.228096 0.03982,0.06202 0.07874,0.124497 0.117225,0.187257 0.03174,0.04869 0.05614,0.10088 0.08184,0.152394 0.04306,0.08554 0.09025,0.169181 0.139609,0.251652 0.05785,0.09174 0.118987,0.181728 0.178913,0.272337 0.0559,0.08526 0.111716,0.170512 0.166471,0.256391 0.01897,0.03095 0.0393,0.06148 0.05679,0.09327 0.0103,0.01877 0.01762,0.04316 0.02568,0.06217 0.01555,0.04369 0.03075,0.08739 0.03741,0.133137 0.0042,0.03446 0.0059,0.06913 0.0068,0.10379 5.89e-4,0.03008 0.01099,0.03134 -0.0013,0.02911 -4.06e-4,-4.87e-4 -0.0013,-0.002 -0.0018,-0.0015 -0.0047,0.01005 -0.0052,0.0213 -0.0091,0.03174 -5.89e-4,0.002 0.0023,-0.0043 0.0013,-0.0061 -4e-4,-4.86e-4 -0.0084,0.02017 0.0013,-0.0034 0.01278,-0.01958 0.02127,-0.04227 0.03835,-0.05881 0.09916,-0.09569 0.171408,-0.126995 0.332818,-0.110194 0.06488,0.0066 0.187396,0.111253 0.139057,0.05525 -0.06618,-0.07023 -0.128582,-0.143315 -0.183571,-0.221501 -0.04,-0.06279 -0.08583,-0.122223 -0.125478,-0.185213 -0.01737,-0.02741 -0.03317,-0.05551 -0.05018,-0.08308 -0.05549,-0.08316 -0.103985,-0.17007 -0.155519,-0.255366 -0.04642,-0.07335 -0.08495,-0.150551 -0.123623,-0.227611 -0.04648,-0.09017 -0.103279,-0.175152 -0.15118,-0.264604 -0.03228,-0.06157 -0.05007,-0.12823 -0.07295,-0.19308 -0.0265,-0.08432 -0.06272,-0.165298 -0.09754,-0.246777 -0.02421,-0.05273 -0.04176,-0.107517 -0.05974,-0.162246 -0.02221,-0.07048 -0.05048,-0.138921 -0.08087,-0.206611 -0.02349,-0.05522 -0.04575,-0.110955 -0.06694,-0.166982 -0.0215,-0.05794 -0.04747,-0.114189 -0.06945,-0.17193 -0.02339,-0.0514 -0.03729,-0.10534 -0.05372,-0.158774 -0.0053,-0.01706 -0.01077,-0.03407 -0.0135,-0.05165 -5.83e-4,-0.0039 -0.0023,-0.01537 -0.0018,-0.01139 0.0053,0.03849 0.0047,0.02163 0.0047,0.05191 0.01762,-0.05114 0.03092,-0.107892 0.04483,-0.161806 0.01579,-0.06424 0.03081,-0.129843 0.02987,-0.196172 -2.94e-4,-0.02144 -0.0029,-0.04272 -0.0047,-0.06408 -0.0084,-0.0645 -0.03575,-0.123871 -0.05897,-0.184338 -4.65e-4,-0.01905 -0.01991,-0.03597 -0.0235,-0.0548 -1.06e-4,-4.85e-4 5.87e-4,9.03e-4 0.0013,0.0015 0.0013,0.003 0.0023,0.0054 0.0036,0.0087 -0.01236,-0.04584 -0.01762,-0.07145 -0.0334,-0.114136 0.01944,0.06602 0.0013,-0.0069 -0.0029,-0.03052 -0.01077,-0.03522 -0.01533,-0.07127 -0.02174,-0.107287 -0.0053,-0.03096 -0.01372,-0.06148 -0.01991,-0.09231 -0.0023,-0.01594 -5.89e-4,-0.0039 -0.008,-0.03567 -0.11358,-0.449186 -0.794138,-0.299235 -0.680547,0.149948 v 0 c -0.0023,-0.01327 -0.0013,-0.0076 0.0036,0.01686 9.4e-5,4.85e-4 0.0084,0.03907 0.0096,0.04082 0.0023,0.0043 -0.0036,-0.01958 -0.0023,-0.01458 0.0029,0.01647 0.0052,0.03297 0.0094,0.04927 0.0052,0.03344 0.01123,0.07411 0.02174,0.109749 4.65e-4,0.0015 -3e-4,-0.003 -4.72e-4,-0.0043 0.0091,0.04786 0.01237,0.07074 0.0314,0.132417 5.87e-4,0.002 0.0023,0.0072 0.0023,0.0053 -0.0023,-0.0087 4.72e-4,-0.02013 -0.0069,-0.02571 -0.0029,-0.002 0.02174,0.08436 0.01077,0.03665 0.01077,0.05052 0.02379,0.102744 0.04907,0.148903 0.0047,0.01211 0.03582,0.103947 0.02215,0.0367 1.58e-4,-0.0069 -7.1e-5,-0.01367 4.7e-4,-0.02047 2.96e-4,-0.0034 0.0013,-0.014 0.0023,-0.01059 0.0036,0.01381 -0.0119,0.05319 -0.01277,0.0664 -0.01784,0.06924 -0.03717,0.138028 -0.05466,0.207316 -0.0029,0.02387 -0.0084,0.04758 -0.0094,0.07158 -0.0029,0.07778 0.01397,0.153453 0.03769,0.22748 0.02079,0.06626 0.03888,0.13325 0.06703,0.197279 0.02221,0.05748 0.04724,0.113782 0.06921,0.171298 0.02586,0.06728 0.05202,0.134563 0.08097,0.200751 0.0215,0.04758 0.04182,0.09551 0.05702,0.145228 0.02362,0.07184 0.04777,0.143524 0.07891,0.212949 0.02974,0.06939 0.06136,0.137994 0.0832,0.210071 0.03405,0.09499 0.06197,0.192298 0.112282,0.281502 0.04541,0.08365 0.09628,0.164426 0.142396,0.247741 0.04618,0.09195 0.09278,0.183748 0.147815,0.271428 0.05254,0.08685 0.101937,0.175395 0.158424,0.260103 0.0208,0.03387 0.04094,0.06826 0.06227,0.101938 0.04359,0.06884 0.09341,0.134125 0.13753,0.202664 0.07059,0.09805 0.146991,0.19205 0.231045,0.280491 0.06553,0.07139 0.132841,0.143674 0.243781,0.161107 0.165099,0.0259 0.255384,-0.01497 0.359657,-0.113223 0.02238,-0.02108 0.03487,-0.04976 0.05231,-0.07466 0.03759,-0.07822 0.06299,-0.160428 0.0738,-0.245802 0.0013,-0.02269 0.0036,-0.04535 0.0042,-0.06808 0.0023,-0.07463 -0.0075,-0.149716 -0.01602,-0.223712 -0.01691,-0.09303 -0.04258,-0.184095 -0.07871,-0.272357 -0.0069,-0.01574 -0.03417,-0.07954 -0.03647,-0.08432 -0.02675,-0.05623 -0.06109,-0.108938 -0.09416,-0.162019 -0.05673,-0.08891 -0.114506,-0.177194 -0.172374,-0.265455 -0.05485,-0.08289 -0.110605,-0.165315 -0.164138,-0.248927 -0.04118,-0.06805 -0.07978,-0.137496 -0.115675,-0.208081 -0.03399,-0.06788 -0.06715,-0.13621 -0.108579,-0.200551 -0.04147,-0.06763 -0.0835,-0.134917 -0.126374,-0.201784 -0.03517,-0.05411 -0.07064,-0.107881 -0.09642,-0.166721 -0.04389,-0.08642 -0.07911,-0.176403 -0.123468,-0.262632 -0.0347,-0.07199 -0.06989,-0.143785 -0.104737,-0.215718 -0.02263,-0.0569 -0.0403,-0.115249 -0.05773,-0.17369 -0.01738,-0.05634 -0.0357,-0.112335 -0.05372,-0.168343 -0.0135,-0.06257 -0.02822,-0.124953 -0.04471,-0.186918 -0.0088,-0.03082 -0.01714,-0.06168 -0.02768,-0.092 -0.0036,-0.01059 -0.0084,-0.04334 -0.0089,-0.03226 -2.93e-4,0.01496 0.0042,0.0298 0.0059,0.04467 -0.196973,0.0818 -0.387019,0.180114 -0.590949,0.245416 -0.01277,0.0043 -0.05685,-0.06993 -0.06246,-0.08001 -0.0053,-0.01005 -0.0089,-0.02224 -0.01167,-0.03334 -4.7e-4,-0.002 0.0013,0.0043 0.0018,0.0062 0.0029,0.01196 0.0042,0.02425 0.0084,0.03548 0.0013,0.002 -0.0018,-0.0049 -5.83e-4,-0.0069 0.0013,-0.002 5.9e-4,0.0039 0.0013,0.0061 -1.05e-4,-0.0069 -1.52e-4,-0.01347 -3e-4,-0.02036 -4.65e-4,-0.0054 6e-6,0.01116 6e-6,0.01648 1.54e-4,0.04918 5.89e-4,0.0984 0.0053,0.147387 0.0069,0.06004 0.01668,0.119874 0.03717,0.177368 0.0096,0.0346 0.01856,0.07046 0.02391,0.107983 0.01372,0.06465 0.02734,0.129332 0.03976,0.194202 0.0185,0.08925 0.03069,0.179754 0.05945,0.266942 0.01397,0.05012 0.03063,0.09996 0.03689,0.151634 0,0.461525 0.699249,0.461525 0.699249,0 z" />
    <path
       style="display:inline;fill:#000000;stroke:#000000;stroke-width:0.446864;stroke-opacity:1"
       id="path2650"
       d="m 15.957826,19.54538 c -0.01166,-0.128877 -0.03824,-0.256216 -0.06354,-0.383285 -0.02498,-0.116119 -0.05161,-0.231957 -0.07982,-0.347433 -0.01443,-0.05873 -0.02038,-0.118528 -0.02263,-0.178579 -0.0018,-0.07208 -0.0018,-0.144202 -0.0018,-0.21629 1.59e-4,-0.07154 3e-4,-0.143086 3e-4,-0.214626 4.6e-5,-0.08948 4.6e-5,-0.178957 4.6e-5,-0.268447 0,-0.07268 0,-0.145303 0,-0.217974 0.0064,-0.07489 -0.01077,-0.14799 -0.02103,-0.221618 -0.0047,-0.07115 -0.02321,-0.140467 -0.04335,-0.208954 -0.01873,-0.06244 -0.03866,-0.12366 -0.06445,-0.184031 -0.01714,-0.04792 -0.03192,-0.09948 -0.04853,-0.14883 -0.02175,-0.06507 -0.04607,-0.120308 -0.06705,-0.170205 -0.0103,-0.02707 -0.01277,-0.06304 -0.02055,-0.100795 -0.01262,-0.05668 -0.02221,-0.113475 -0.0403,-0.16903 -0.0094,-0.03237 -0.01372,-0.06418 -0.02126,-0.0978 -0.0089,-0.02687 -0.01146,-0.0548 -0.01326,-0.0827 -0.0023,-0.04093 -0.0023,-0.08192 -0.0023,-0.122849 -0.0029,-0.06065 -0.01944,-0.119079 -0.02498,-0.179397 -5.89e-4,-0.06104 -0.01601,-0.120589 -0.02438,-0.180833 -0.0059,-0.04753 -0.007,-0.09535 -0.01123,-0.143009 -0.0052,-0.03353 -0.0084,-0.06721 -0.01007,-0.101078 -1.53e-4,-0.0049 -2.94e-4,-0.0099 -4.64e-4,-0.01457 -0.01544,-0.461308 -0.71433,-0.440492 -0.69856,0.02082 v 0 c 2.99e-4,0.0076 5.83e-4,0.01497 5.88e-4,0.0226 0.0023,0.0452 0.0053,0.09031 0.01262,0.135066 0.0036,0.05592 0.0064,0.112541 0.01438,0.168348 0.0103,0.0696 0.01944,0.09076 0.02103,0.153205 0.0036,0.03625 0.008,0.07226 0.01443,0.108188 0.0018,0.01093 0.0042,0.02192 0.0064,0.03286 1.54e-4,9.03e-4 0.0013,0.0034 0.0013,0.0024 4.71e-4,-0.0077 -6e-5,-0.01556 -8.9e-5,-0.02333 1.18e-4,0.05676 1.6e-4,0.113543 0.0042,0.170206 0.0059,0.06806 0.01461,0.135981 0.03481,0.201828 -0.0018,-0.01116 5.89e-4,-0.04301 -0.0053,-0.03325 -0.0089,0.01478 0.02727,0.133289 0.03424,0.156903 0.0013,0.003 0.0029,0.01156 0.0029,0.0087 3e-4,-0.0065 -0.0042,-0.02561 -0.0023,-0.01919 0.0073,0.04267 0.01372,0.08552 0.02504,0.127471 1.24e-4,-0.02235 -3.01e-4,-0.002 0.0059,0.03552 0.0084,0.051 0.02221,0.0998 0.04034,0.148505 0.0036,0.0087 0.0073,0.01725 0.01123,0.02576 0.02922,0.07248 0.02533,0.05288 0.04742,0.120523 0.02651,0.07028 0.04123,0.144696 0.07471,0.212782 -0.0013,-0.005 -0.0059,-0.01968 -0.0042,-0.01478 0.01555,0.04078 0.02291,0.08376 0.03894,0.124478 -5.9e-4,-0.01968 -5.9e-4,-0.0054 0.008,0.03183 0.01236,0.05338 -0.007,-0.08711 0.0073,0.04227 0.0018,0.01307 0.0036,0.02609 0.0047,0.03917 0.01077,0.06629 0.0169,0.06323 0.01372,0.127131 6e-6,0.07265 6e-6,0.145301 6e-6,0.217954 0,0.08931 0,0.178617 -5.3e-5,0.267923 -5.9e-5,0.07131 -1.54e-4,0.14261 -2.95e-4,0.21392 -1.59e-4,0.08141 -4.71e-4,0.162833 0.0023,0.244203 0.0047,0.09989 0.01555,0.199394 0.03952,0.297015 0.02614,0.107185 0.05107,0.214644 0.07426,0.322399 0.02321,0.11515 0.04753,0.230321 0.05744,0.347199 0.06361,0.457695 0.75706,0.37371 0.693441,-0.08398 z" />
    <path
       style="display:inline;fill:#000000;stroke:#000000;stroke-width:0.446864;stroke-opacity:1"
       id="path2652"
       d="m 15.333748,20.122979 c 0.03694,0.06464 0.0671,0.132301 0.09916,0.199091 0.02687,0.05392 0.05079,0.108975 0.07591,0.163591 0.03576,0.07447 0.07341,0.148107 0.112167,0.221278 0.0248,0.04905 0.03811,0.102282 0.05655,0.153661 0.0281,0.07151 0.05137,0.144492 0.07463,0.217477 0.03735,0.127987 0.07391,0.256013 0.116471,0.382585 0.05313,0.137365 0.103186,0.275603 0.152163,0.414286 0.05143,0.136189 0.108961,0.270221 0.172985,0.401644 0.05684,0.130578 0.131699,0.251949 0.21021,0.371845 0.03852,0.05223 0.07727,0.104366 0.116995,0.155798 0.0185,0.02411 0.04371,0.0499 0.05815,0.07734 0.0064,0.0053 0.06731,0.11042 0.04242,0.06971 0.01053,0.01877 0.02198,0.03724 0.03152,0.05645 0.213709,0.416197 0.844267,0.134107 0.630569,-0.2821 v 0 c -0.0018,-0.0034 -0.02734,-0.05229 -0.02992,-0.05352 -0.007,-0.0034 0.0064,0.01344 0.0098,0.02028 -0.03546,-0.07072 -0.03994,-0.07493 -0.08596,-0.148548 -0.05455,-0.08145 -0.117473,-0.157546 -0.176945,-0.235916 -0.06386,-0.09747 -0.125748,-0.195167 -0.170541,-0.302105 -0.05379,-0.109681 -0.101404,-0.221793 -0.145141,-0.335277 -0.04802,-0.135922 -0.09658,-0.271588 -0.149276,-0.405995 -0.04177,-0.123209 -0.07607,-0.248294 -0.113245,-0.372737 -0.02609,-0.08179 -0.05266,-0.163458 -0.08366,-0.243741 -0.03052,-0.07714 -0.04789,-0.159251 -0.09159,-0.231717 -0.03387,-0.06304 -0.06592,-0.126937 -0.09712,-0.191172 -0.0271,-0.05647 -0.05107,-0.114247 -0.07911,-0.170315 -0.0334,-0.06929 -0.06463,-0.139641 -0.102886,-0.206746 -0.2082,-0.418617 -0.842441,-0.143773 -0.634239,0.274834 z" />
    <path
       style="display:inline;fill:#000000;stroke:#000000;stroke-width:0.446864;stroke-opacity:1"
       id="path2654"
       d="m 18.296709,24.288904 c 0.09635,0.07708 0.202005,0.142726 0.312113,0.201172 0.09146,0.04214 0.185563,0.07866 0.280334,0.113657 0.07727,0.02458 0.157835,0.03811 0.237571,0.05387 0.07474,0.01497 0.151331,0.01458 0.226739,0.0247 0.06122,0.0043 0.119899,0.01855 0.179183,0.03294 0.08521,0.02411 0.171096,0.04661 0.257729,0.06586 0.06242,0.01627 0.122964,0.0378 0.184145,0.05765 0.09603,0.0224 0.191075,0.04826 0.287129,0.07069 0.09055,0.02094 0.181858,0.03704 0.273493,0.05314 0.106381,0.0207 0.214622,0.0293 0.322963,0.03431 0.09248,0.01156 0.185334,0.01968 0.278459,0.02493 0.09725,0.0047 0.194648,0.0051 0.292009,0.0053 0.100351,1.08e-4 0.200696,-2.3e-5 0.301056,-8.7e-5 0.09994,-6.7e-5 0.199894,-7.8e-5 0.299836,-8.2e-5 0.133914,0.0015 0.267569,0.01307 0.401392,0.01919 0.128247,0.0049 0.255727,0.01939 0.383868,0.02673 0.115697,0.0061 0.231416,0.0043 0.346773,0.01438 0.108673,0.0072 0.216724,0.01857 0.325007,0.0294 0.101949,0.01589 0.204226,0.0293 0.30713,0.03824 0.04753,0.0024 0.09578,0.01537 0.150696,0.02304 0.04676,0.0057 0.09391,0.0083 0.141047,0.0092 0.03852,9.04e-4 0.0244,-0.0034 0.04118,0.0024 0.08894,0.01214 0.178657,0.01785 0.268367,0.02211 0.04034,0.01516 0.08904,0.0069 0.129365,0.0207 0.05879,0.01347 0.118986,0.01896 0.178795,0.02634 0.0047,4.87e-4 -0.0096,-4.85e-4 -0.01444,-9.03e-4 0.07359,0.01725 0.148911,0.02542 0.224454,0.03052 0.06077,0.0039 0.121707,4.87e-4 0.18161,0.0086 0.07349,0.01093 0.147586,0.01667 0.221849,0.02003 0.06131,0.002 0.122638,0.002 0.183967,0.002 0.0091,-1.1e-5 0.01832,-4.87e-4 0.02727,-2e-5 0.0053,3.31e-4 -0.01213,-0.002 -0.01667,4.86e-4 -0.0036,0.002 0.0077,0.0015 0.0119,0.0024 0.0091,0.0015 0.01832,0.003 0.02745,0.0043 0.04135,0.0065 0.03504,0.0051 0.08113,0.01005 0.07756,0.0075 0.155525,0.0087 0.233389,0.0093 0.07631,4.87e-4 0.15264,3.36e-4 0.228971,1.52e-4 0.0622,-5.9e-5 0.124357,-8.9e-5 0.186553,-1.03e-4 0.05654,-10e-6 0.113082,-10e-6 0.169623,-10e-6 0.05726,0 0.114528,0 0.171777,0 0.04978,0 0.09958,0 0.149371,0 0.06774,0.0043 0.133937,-0.01027 0.200379,-0.01969 0.04212,-0.0051 0.08463,-0.0053 0.127038,-0.0061 0.0955,-4.87e-4 0.189928,-0.01705 0.283448,-0.03343 0.0916,-0.02099 0.184167,-0.03742 0.274507,-0.0627 0.02238,-0.008 0.0453,-0.0094 0.06883,-0.01059 0.06217,9.04e-4 0.12351,-0.008 0.184673,-0.01706 0.04318,-0.0065 0.08688,-0.0083 0.130509,-0.0094 0.0496,-9.03e-4 0.09923,-9.03e-4 0.148845,-9.03e-4 0.05731,7.8e-5 0.114622,1.15e-4 0.171933,1.51e-4 0.05974,2e-5 0.119445,2.4e-5 0.179189,2.4e-5 0.05296,5e-6 0.10593,0 0.158855,0 0.05455,0 0.109112,0 0.163666,0 0.04612,0 0.09218,0 0.138302,0 0.09328,-0.002 0.1825,-0.02843 0.273688,-0.04359 0.05143,-0.002 0.09941,-0.02454 0.149965,-0.02969 0.04188,-4.87e-4 0.08199,-0.01497 0.122851,-0.02205 0.03976,-0.0057 0.0774,-0.01919 0.117271,-0.02391 0.05266,-0.002 0.10431,-0.01139 0.155887,-0.02085 C 29.882149,25.035834 29.940804,25.016377 30,25 c 0.02839,-0.0054 0.05708,-0.0089 0.08603,-0.01093 0.492663,-0.03917 0.43335,-0.689493 -0.05931,-0.650347 v 0 c -0.07668,0.0064 -0.153076,0.01628 -0.227356,0.03601 -0.06248,0.01764 -0.0922,0.02911 -0.112654,0.03037 -0.0094,0.002 -0.0192,0.0034 -0.02856,0.0053 -0.0047,9.04e-4 -0.01737,9.04e-4 -0.01325,0.003 0.0052,0.0024 0.0241,-9.03e-4 0.01808,-4.84e-4 -0.03387,0.003 -0.06806,0.003 -0.101681,0.0087 -0.06371,0.0092 -0.126138,0.02542 -0.15211,0.02969 -0.03182,0.0063 -0.02721,0.0051 -0.05586,0.01156 -0.0042,9.04e-4 -0.01691,0.003 -0.01262,0.003 0.0084,3.31e-4 0.03428,-0.0034 0.02575,-0.0024 -0.02745,0.002 -0.03912,0.0039 -0.06667,0.0076 -0.05012,0.0089 -0.09879,0.02304 -0.149323,0.02961 -0.0493,0.0086 -0.09777,0.01896 -0.146442,0.0295 -0.0063,0.0015 -0.01533,-0.002 -0.01874,0.003 -0.0029,0.0043 0.01077,4.87e-4 0.01626,4.87e-4 -0.04612,0 -0.09222,0 -0.138307,0 -0.05455,0 -0.109112,0 -0.163661,0 -0.05296,0 -0.105906,0 -0.158861,0 -0.05962,0 -0.119234,0 -0.178865,-2.6e-5 -0.05726,-2.3e-5 -0.114493,-7.2e-5 -0.171748,-1.49e-4 -0.05732,-3.9e-5 -0.114645,-1.51e-4 -0.171939,9.03e-4 -0.0734,0.0024 -0.14679,0.0064 -0.219357,0.01746 -0.03599,0.0053 -0.05202,0.0077 -0.05183,0.008 0.0036,0.0057 0.02968,-3.36e-4 0.02221,-7.8e-5 -0.02957,9.03e-4 -0.05929,-1.51e-4 -0.08885,0.002 -0.07651,0.0051 -0.152527,0.01497 -0.225807,0.03708 -0.06628,0.01896 -0.135057,0.02887 -0.202005,0.04617 -0.05679,0.01005 -0.113498,0.02224 -0.165398,0.0222 -0.07521,9.03e-4 -0.150554,0.0034 -0.225025,0.014 -0.02734,0.0043 -0.03605,0.0053 -0.06159,0.01005 -0.0029,4.86e-4 -0.01167,0.0015 -0.0088,0.002 0.06426,0.0069 -0.0098,-0.0053 -0.02032,-1.06e-4 -0.04978,0 -0.09957,0 -0.149364,0 -0.05726,0 -0.114529,-6e-6 -0.171778,-6e-6 -0.0566,0 -0.11322,0 -0.169835,1.6e-5 -0.06233,1.3e-5 -0.124653,3.8e-5 -0.186983,1.02e-4 -0.07391,6.2e-5 -0.147815,1.49e-4 -0.221732,-1.51e-4 -0.05437,-4.81e-4 -0.108835,-9.04e-4 -0.163042,-0.0053 -0.0693,-0.0061 -0.137301,-0.02533 -0.207583,-0.02139 -0.05083,-1.5e-5 -0.101705,5e-5 -0.15248,-0.0015 -0.05349,-0.002 -0.106706,-0.0064 -0.15955,-0.01478 -0.07575,-0.0092 -0.151514,-0.01234 -0.227859,-0.01287 -0.04147,-0.0024 -0.08272,-0.0066 -0.122985,-0.01706 -0.06177,-0.01048 -0.124058,-0.01667 -0.185404,-0.02961 -0.07398,-0.01171 -0.148275,-0.02245 -0.222762,-0.03095 -0.07719,-0.0034 -0.154314,-0.0087 -0.230833,-0.01943 -0.05202,-0.0043 -0.103777,-0.0057 -0.155798,-0.0087 -0.06215,-0.0069 -0.122437,-0.02698 -0.18568,-0.02687 -0.09955,-0.0083 -0.198023,-0.02387 -0.296874,-0.03732 -0.111276,-0.01116 -0.222421,-0.02274 -0.334056,-0.03027 -0.123004,-0.01059 -0.246142,-0.01139 -0.369511,-0.0159 -0.130986,-0.0075 -0.261265,-0.02289 -0.392433,-0.02717 -0.145047,-0.0065 -0.289917,-0.01919 -0.435156,-0.01993 -0.100074,6e-6 -0.200172,1.5e-5 -0.300268,7.9e-5 -0.09953,6.6e-5 -0.199052,1.5e-4 -0.298598,9e-5 -0.08424,-1.5e-4 -0.16851,-3.29e-4 -0.252659,-0.0043 -0.09576,-0.0051 -0.190728,-0.01647 -0.286118,-0.02533 -0.07714,-0.0034 -0.154194,-0.0089 -0.229855,-0.02426 -0.07845,-0.01347 -0.15645,-0.02659 -0.23376,-0.0452 -0.07534,-0.01667 -0.148681,-0.04054 -0.224936,-0.05354 -0.08453,-0.02717 -0.168297,-0.05651 -0.255185,-0.07672 -0.08097,-0.01627 -0.159933,-0.04088 -0.239632,-0.06175 -0.08525,-0.02066 -0.171138,-0.03917 -0.258891,-0.04773 -0.05983,-0.0076 -0.119877,-0.01139 -0.179827,-0.01705 -0.04141,-0.0077 -0.08307,-0.02085 -0.125089,-0.02254 -0.06557,-0.02367 -0.129959,-0.04988 -0.194505,-0.07575 -0.07574,-0.03821 -0.145917,-0.08537 -0.211516,-0.137361 -0.38322,-0.291639 -0.825075,0.214235 -0.441855,0.505876 z" />
  </g>
</svg>
